<?xml version="1.0" encoding="UTF-8" standalone="no"?>
<!DOCTYPE svg PUBLIC "-//W3C//DTD SVG 1.1//EN"
 "http://www.w3.org/Graphics/SVG/1.1/DTD/svg11.dtd">
<!-- Generated by graphviz version 13.1.2 (20250808.2320)
 -->
<!-- Title: G Pages: 1 -->
<svg width="1296pt" height="212pt"
 viewBox="0.00 0.00 1296.00 212.00" xmlns="http://www.w3.org/2000/svg" xmlns:xlink="http://www.w3.org/1999/xlink">
<g id="graph0" class="graph" transform="scale(1 1) rotate(0) translate(4 208.49)">
<title>G</title>
<polygon fill="white" stroke="none" points="-4,4 -4,-208.49 1292.25,-208.49 1292.25,4 -4,4"/>
<!-- client -->
<g id="node1" class="node">
<title>client</title>
<path fill="none" stroke="black" d="M157.75,-36C157.75,-36 12,-36 12,-36 6,-36 0,-30 0,-24 0,-24 0,-12 0,-12 0,-6 6,0 12,0 12,0 157.75,0 157.75,0 163.75,0 169.75,-6 169.75,-12 169.75,-12 169.75,-24 169.75,-24 169.75,-30 163.75,-36 157.75,-36"/>
<text xml:space="preserve" text-anchor="middle" x="84.88" y="-12.95" font-family="Times New Roman,serif" font-size="14.00">Client System (Loan Portal)</text>
</g>
<!-- endpoint -->
<g id="node2" class="node">
<title>endpoint</title>
<path fill="none" stroke="black" d="M462.5,-83.5C462.5,-83.5 292,-83.5 292,-83.5 286,-83.5 280,-77.5 280,-71.5 280,-71.5 280,-54.5 280,-54.5 280,-48.5 286,-42.5 292,-42.5 292,-42.5 462.5,-42.5 462.5,-42.5 468.5,-42.5 474.5,-48.5 474.5,-54.5 474.5,-54.5 474.5,-71.5 474.5,-71.5 474.5,-77.5 468.5,-83.5 462.5,-83.5"/>
<text xml:space="preserve" text-anchor="middle" x="377.25" y="-66.2" font-family="Times New Roman,serif" font-size="14.00">REST Endpoints</text>
<text xml:space="preserve" text-anchor="middle" x="377.25" y="-49.7" font-family="Times New Roman,serif" font-size="14.00">/creditscore, /T153575... , others</text>
</g>
<!-- client&#45;&gt;endpoint -->
<g id="edge1" class="edge">
<title>client&#45;&gt;endpoint</title>
<path fill="none" stroke="black" d="M169.86,-31.02C200.71,-35.8 236.07,-41.28 268.71,-46.33"/>
<polygon fill="black" stroke="black" points="267.75,-49.73 278.17,-47.8 268.82,-42.81 267.75,-49.73"/>
<text xml:space="preserve" text-anchor="middle" x="224.88" y="-47.73" font-family="Times New Roman,serif" font-size="14.00">Send Request</text>
</g>
<!-- process -->
<g id="node3" class="node">
<title>process</title>
<path fill="none" stroke="black" d="M753,-113C753,-113 615.5,-113 615.5,-113 609.5,-113 603.5,-107 603.5,-101 603.5,-101 603.5,-89 603.5,-89 603.5,-83 609.5,-77 615.5,-77 615.5,-77 753,-77 753,-77 759,-77 765,-83 765,-89 765,-89 765,-101 765,-101 765,-107 759,-113 753,-113"/>
<text xml:space="preserve" text-anchor="middle" x="684.25" y="-89.95" font-family="Times New Roman,serif" font-size="14.00">creditcheckservice.Process</text>
</g>
<!-- endpoint&#45;&gt;process -->
<g id="edge2" class="edge">
<title>endpoint&#45;&gt;process</title>
<path fill="none" stroke="black" d="M474.75,-73.12C512.24,-77.06 554.96,-81.54 591.94,-85.42"/>
<polygon fill="black" stroke="black" points="591.4,-88.88 601.71,-86.44 592.13,-81.92 591.4,-88.88"/>
<text xml:space="preserve" text-anchor="middle" x="539" y="-87.85" font-family="Times New Roman,serif" font-size="14.00">Forward Request</text>
</g>
<!-- lookup -->
<g id="node4" class="node">
<title>lookup</title>
<path fill="none" stroke="black" d="M1097.5,-193C1097.5,-193 909.75,-193 909.75,-193 903.75,-193 897.75,-187 897.75,-181 897.75,-181 897.75,-169 897.75,-169 897.75,-163 903.75,-157 909.75,-157 909.75,-157 1097.5,-157 1097.5,-157 1103.5,-157 1109.5,-163 1109.5,-169 1109.5,-169 1109.5,-181 1109.5,-181 1109.5,-187 1103.5,-193 1097.5,-193"/>
<text xml:space="preserve" text-anchor="middle" x="1003.62" y="-169.95" font-family="Times New Roman,serif" font-size="14.00">creditcheckservice.LookupDatabase</text>
</g>
<!-- process&#45;&gt;lookup -->
<g id="edge4" class="edge">
<title>process&#45;&gt;lookup</title>
<path fill="none" stroke="black" d="M701.05,-113.36C718.77,-132.42 749.45,-161.08 783,-173 815.28,-184.47 851.96,-188.13 885.96,-188.06"/>
<polygon fill="black" stroke="black" points="885.92,-191.56 895.87,-187.92 885.82,-184.56 885.92,-191.56"/>
<text xml:space="preserve" text-anchor="middle" x="831.38" y="-191.19" font-family="Times New Roman,serif" font-size="14.00">Fetch Data</text>
</g>
<!-- response -->
<g id="node6" class="node">
<title>response</title>
<path fill="none" stroke="black" d="M1073.5,-41C1073.5,-41 933.75,-41 933.75,-41 927.75,-41 921.75,-35 921.75,-29 921.75,-29 921.75,-17 921.75,-17 921.75,-11 927.75,-5 933.75,-5 933.75,-5 1073.5,-5 1073.5,-5 1079.5,-5 1085.5,-11 1085.5,-17 1085.5,-17 1085.5,-29 1085.5,-29 1085.5,-35 1079.5,-41 1073.5,-41"/>
<text xml:space="preserve" text-anchor="middle" x="1003.62" y="-17.95" font-family="Times New Roman,serif" font-size="14.00">Structured JSON Response</text>
</g>
<!-- process&#45;&gt;response -->
<g id="edge9" class="edge">
<title>process&#45;&gt;response</title>
<path fill="none" stroke="black" d="M722.02,-76.67C740,-68.41 762.21,-59.25 783,-53.5 823.95,-42.18 870.41,-34.95 910.02,-30.39"/>
<polygon fill="black" stroke="black" points="910.21,-33.89 919.76,-29.31 909.44,-26.93 910.21,-33.89"/>
<text xml:space="preserve" text-anchor="middle" x="831.38" y="-56.7" font-family="Times New Roman,serif" font-size="14.00">Prepare Response</text>
</g>
<!-- log -->
<g id="node7" class="node">
<title>log</title>
<path fill="none" stroke="black" d="M1073.12,-104C1073.12,-104 934.12,-104 934.12,-104 928.12,-104 922.12,-98 922.12,-92 922.12,-92 922.12,-80 922.12,-80 922.12,-74 928.12,-68 934.12,-68 934.12,-68 1073.12,-68 1073.12,-68 1079.12,-68 1085.12,-74 1085.12,-80 1085.12,-80 1085.12,-92 1085.12,-92 1085.12,-98 1079.12,-104 1073.12,-104"/>
<text xml:space="preserve" text-anchor="middle" x="1003.62" y="-80.95" font-family="Times New Roman,serif" font-size="14.00">Logging &amp; Error Handling</text>
</g>
<!-- process&#45;&gt;log -->
<g id="edge3" class="edge">
<title>process&#45;&gt;log</title>
<path fill="none" stroke="black" d="M765.36,-78.59C771.31,-77.76 777.24,-77.04 783,-76.5 824.67,-72.59 870.95,-73.78 910.24,-76.41"/>
<polygon fill="black" stroke="black" points="909.92,-79.89 920.15,-77.12 910.42,-72.91 909.92,-79.89"/>
<text xml:space="preserve" text-anchor="middle" x="831.38" y="-79.7" font-family="Times New Roman,serif" font-size="14.00">Validate &amp; Log</text>
</g>
<!-- process&#45;&gt;log -->
<g id="edge8" class="edge">
<title>process&#45;&gt;log</title>
<path fill="none" stroke="black" d="M765.23,-95.02C800.37,-94.81 842.12,-94.26 879.75,-93 889.71,-92.67 900.12,-92.22 910.48,-91.72"/>
<polygon fill="black" stroke="black" points="910.36,-95.23 920.17,-91.23 910.01,-88.24 910.36,-95.23"/>
<text xml:space="preserve" text-anchor="middle" x="831.38" y="-98.08" font-family="Times New Roman,serif" font-size="14.00">Log Result</text>
</g>
<!-- lookup&#45;&gt;process -->
<g id="edge7" class="edge">
<title>lookup&#45;&gt;process</title>
<path fill="none" stroke="black" d="M929.23,-156.5C881.54,-144.48 819.23,-128.77 769.51,-116.24"/>
<polygon fill="black" stroke="black" points="770.48,-112.87 759.93,-113.82 768.77,-119.66 770.48,-112.87"/>
<text xml:space="preserve" text-anchor="middle" x="831.38" y="-145.37" font-family="Times New Roman,serif" font-size="14.00">Return Data</text>
</g>
<!-- db -->
<g id="node5" class="node">
<title>db</title>
<path fill="none" stroke="black" d="M1276.25,-193C1276.25,-193 1197.25,-193 1197.25,-193 1191.25,-193 1185.25,-187 1185.25,-181 1185.25,-181 1185.25,-169 1185.25,-169 1185.25,-163 1191.25,-157 1197.25,-157 1197.25,-157 1276.25,-157 1276.25,-157 1282.25,-157 1288.25,-163 1288.25,-169 1288.25,-169 1288.25,-181 1288.25,-181 1288.25,-187 1282.25,-193 1276.25,-193"/>
<text xml:space="preserve" text-anchor="middle" x="1236.75" y="-169.95" font-family="Times New Roman,serif" font-size="14.00">Credit Database</text>
</g>
<!-- lookup&#45;&gt;db -->
<g id="edge5" class="edge">
<title>lookup&#45;&gt;db</title>
<path fill="none" stroke="black" d="M1109.7,-175C1131.54,-175 1153.87,-175 1173.56,-175"/>
<polygon fill="black" stroke="black" points="1173.3,-178.5 1183.3,-175 1173.3,-171.5 1173.3,-178.5"/>
<text xml:space="preserve" text-anchor="middle" x="1147.38" y="-178.2" font-family="Times New Roman,serif" font-size="14.00">Query</text>
</g>
<!-- db&#45;&gt;lookup -->
<g id="edge6" class="edge">
<title>db&#45;&gt;lookup</title>
<path fill="none" stroke="black" d="M1184.87,-158.01C1178.98,-156.57 1173.02,-155.35 1167.25,-154.5 1143.55,-151.03 1117.86,-152.06 1094.04,-155"/>
<polygon fill="black" stroke="black" points="1093.81,-151.5 1084.38,-156.33 1094.76,-158.43 1093.81,-151.5"/>
<text xml:space="preserve" text-anchor="middle" x="1147.38" y="-157.7" font-family="Times New Roman,serif" font-size="14.00">Results</text>
</g>
<!-- response&#45;&gt;client -->
<g id="edge10" class="edge">
<title>response&#45;&gt;client</title>
<path fill="none" stroke="black" d="M921.43,-22.56C752.18,-21.63 362.39,-19.51 181.42,-18.52"/>
<polygon fill="black" stroke="black" points="181.6,-15.02 171.58,-18.47 181.56,-22.02 181.6,-15.02"/>
<text xml:space="preserve" text-anchor="middle" x="539" y="-23.87" font-family="Times New Roman,serif" font-size="14.00">Return JSON</text>
</g>
</g>
</svg>
