<?xml version="1.0" encoding="UTF-8" standalone="no"?>
<!DOCTYPE svg PUBLIC "-//W3C//DTD SVG 1.1//EN"
 "http://www.w3.org/Graphics/SVG/1.1/DTD/svg11.dtd">
<!-- Generated by graphviz version 13.1.2 (20250808.2320)
 -->
<!-- Title: G Pages: 1 -->
<svg width="669pt" height="210pt"
 viewBox="0.00 0.00 669.00 210.00" xmlns="http://www.w3.org/2000/svg" xmlns:xlink="http://www.w3.org/1999/xlink">
<g id="graph0" class="graph" transform="scale(1 1) rotate(0) translate(4 206.12)">
<title>G</title>
<polygon fill="white" stroke="none" points="-4,4 -4,-206.12 665,-206.12 665,4 -4,4"/>
<!-- main -->
<g id="node1" class="node">
<title>main</title>
<path fill="none" stroke="black" d="M266.75,-119.07C266.75,-119.07 200.5,-119.07 200.5,-119.07 194.5,-119.07 188.5,-113.07 188.5,-107.07 188.5,-107.07 188.5,-95.07 188.5,-95.07 188.5,-89.07 194.5,-83.07 200.5,-83.07 200.5,-83.07 266.75,-83.07 266.75,-83.07 272.75,-83.07 278.75,-89.07 278.75,-95.07 278.75,-95.07 278.75,-107.07 278.75,-107.07 278.75,-113.07 272.75,-119.07 266.75,-119.07"/>
<text xml:space="preserve" text-anchor="middle" x="233.62" y="-96.02" font-family="Times New Roman,serif" font-size="14.00">Main Process</text>
</g>
<!-- equifax -->
<g id="node2" class="node">
<title>equifax</title>
<path fill="none" stroke="black" d="M453.38,-173.07C453.38,-173.07 341.38,-173.07 341.38,-173.07 335.38,-173.07 329.38,-167.07 329.38,-161.07 329.38,-161.07 329.38,-149.07 329.38,-149.07 329.38,-143.07 335.38,-137.07 341.38,-137.07 341.38,-137.07 453.38,-137.07 453.38,-137.07 459.38,-137.07 465.38,-143.07 465.38,-149.07 465.38,-149.07 465.38,-161.07 465.38,-161.07 465.38,-167.07 459.38,-173.07 453.38,-173.07"/>
<text xml:space="preserve" text-anchor="middle" x="397.38" y="-150.02" font-family="Times New Roman,serif" font-size="14.00">EquifaxScore Module</text>
</g>
<!-- main&#45;&gt;equifax -->
<g id="edge2" class="edge">
<title>main&#45;&gt;equifax</title>
<path fill="none" stroke="black" d="M279.11,-116.11C290.71,-120.02 303.19,-124.22 314.75,-128.07 319.71,-129.73 324.84,-131.44 330,-133.15"/>
<polygon fill="black" stroke="black" points="328.57,-136.37 339.16,-136.19 330.77,-129.72 328.57,-136.37"/>
</g>
<!-- experian -->
<g id="node3" class="node">
<title>experian</title>
<path fill="none" stroke="black" d="M456.38,-65.07C456.38,-65.07 338.38,-65.07 338.38,-65.07 332.38,-65.07 326.38,-59.07 326.38,-53.07 326.38,-53.07 326.38,-41.07 326.38,-41.07 326.38,-35.07 332.38,-29.07 338.38,-29.07 338.38,-29.07 456.38,-29.07 456.38,-29.07 462.38,-29.07 468.38,-35.07 468.38,-41.07 468.38,-41.07 468.38,-53.07 468.38,-53.07 468.38,-59.07 462.38,-65.07 456.38,-65.07"/>
<text xml:space="preserve" text-anchor="middle" x="397.38" y="-42.02" font-family="Times New Roman,serif" font-size="14.00">ExperianScore Module</text>
</g>
<!-- main&#45;&gt;experian -->
<g id="edge3" class="edge">
<title>main&#45;&gt;experian</title>
<path fill="none" stroke="black" d="M279.11,-86.04C290.71,-82.13 303.19,-77.93 314.75,-74.07 319.71,-72.42 324.84,-70.71 330,-69"/>
<polygon fill="black" stroke="black" points="330.77,-72.43 339.16,-65.96 328.57,-65.78 330.77,-72.43"/>
</g>
<!-- output -->
<g id="node7" class="node">
<title>output</title>
<path fill="none" stroke="black" d="M468,-119.07C468,-119.07 326.75,-119.07 326.75,-119.07 320.75,-119.07 314.75,-113.07 314.75,-107.07 314.75,-107.07 314.75,-95.07 314.75,-95.07 314.75,-89.07 320.75,-83.07 326.75,-83.07 326.75,-83.07 468,-83.07 468,-83.07 474,-83.07 480,-89.07 480,-95.07 480,-95.07 480,-107.07 480,-107.07 480,-113.07 474,-119.07 468,-119.07"/>
<text xml:space="preserve" text-anchor="middle" x="397.38" y="-96.02" font-family="Times New Roman,serif" font-size="14.00">Consolidated Credit Profile</text>
</g>
<!-- main&#45;&gt;output -->
<g id="edge8" class="edge">
<title>main&#45;&gt;output</title>
<path fill="none" stroke="black" d="M278.82,-101.07C286.41,-101.07 294.55,-101.07 302.86,-101.07"/>
<polygon fill="black" stroke="black" points="302.77,-104.57 312.77,-101.07 302.77,-97.57 302.77,-104.57"/>
</g>
<!-- eqResp -->
<g id="node5" class="node">
<title>eqResp</title>
<path fill="none" stroke="black" d="M646,-196.07C646,-196.07 531,-196.07 531,-196.07 525,-196.07 519,-190.07 519,-184.07 519,-184.07 519,-172.07 519,-172.07 519,-166.07 525,-160.07 531,-160.07 531,-160.07 646,-160.07 646,-160.07 652,-160.07 658,-166.07 658,-172.07 658,-172.07 658,-184.07 658,-184.07 658,-190.07 652,-196.07 646,-196.07"/>
<text xml:space="preserve" text-anchor="middle" x="588.5" y="-173.02" font-family="Times New Roman,serif" font-size="14.00">Equifax API Response</text>
</g>
<!-- equifax&#45;&gt;eqResp -->
<g id="edge4" class="edge">
<title>equifax&#45;&gt;eqResp</title>
<path fill="none" stroke="black" d="M465.85,-163.28C479.41,-164.93 493.78,-166.68 507.72,-168.37"/>
<polygon fill="black" stroke="black" points="506.92,-171.8 517.27,-169.53 507.77,-164.85 506.92,-171.8"/>
</g>
<!-- exResp -->
<g id="node6" class="node">
<title>exResp</title>
<path fill="none" stroke="black" d="M649,-42.07C649,-42.07 528,-42.07 528,-42.07 522,-42.07 516,-36.07 516,-30.07 516,-30.07 516,-18.07 516,-18.07 516,-12.07 522,-6.07 528,-6.07 528,-6.07 649,-6.07 649,-6.07 655,-6.07 661,-12.07 661,-18.07 661,-18.07 661,-30.07 661,-30.07 661,-36.07 655,-42.07 649,-42.07"/>
<text xml:space="preserve" text-anchor="middle" x="588.5" y="-19.02" font-family="Times New Roman,serif" font-size="14.00">Experian API Response</text>
</g>
<!-- experian&#45;&gt;exResp -->
<g id="edge5" class="edge">
<title>experian&#45;&gt;exResp</title>
<path fill="none" stroke="black" d="M468.8,-38.51C480.42,-37.1 492.56,-35.62 504.45,-34.17"/>
<polygon fill="black" stroke="black" points="504.75,-37.66 514.25,-32.98 503.9,-30.72 504.75,-37.66"/>
</g>
<!-- applicant -->
<g id="node4" class="node">
<title>applicant</title>
<path fill="none" stroke="black" d="M140.5,-119.07C140.5,-119.07 12,-119.07 12,-119.07 6,-119.07 0,-113.07 0,-107.07 0,-107.07 0,-95.07 0,-95.07 0,-89.07 6,-83.07 12,-83.07 12,-83.07 140.5,-83.07 140.5,-83.07 146.5,-83.07 152.5,-89.07 152.5,-95.07 152.5,-95.07 152.5,-107.07 152.5,-107.07 152.5,-113.07 146.5,-119.07 140.5,-119.07"/>
<text xml:space="preserve" text-anchor="middle" x="76.25" y="-96.02" font-family="Times New Roman,serif" font-size="14.00">Applicant Details (Input)</text>
</g>
<!-- applicant&#45;&gt;main -->
<g id="edge1" class="edge">
<title>applicant&#45;&gt;main</title>
<path fill="none" stroke="black" d="M152.66,-101.07C160.87,-101.07 169.11,-101.07 177.02,-101.07"/>
<polygon fill="black" stroke="black" points="176.81,-104.57 186.81,-101.07 176.81,-97.57 176.81,-104.57"/>
</g>
<!-- eqResp&#45;&gt;main -->
<g id="edge6" class="edge">
<title>eqResp&#45;&gt;main</title>
<path fill="none" stroke="black" d="M518.51,-193.83C461.58,-203.44 379.87,-209.25 314.75,-182.07 288.83,-171.25 267.01,-147.51 252.72,-128.52"/>
<polygon fill="black" stroke="black" points="255.71,-126.68 247.02,-120.61 250.03,-130.77 255.71,-126.68"/>
</g>
<!-- exResp&#45;&gt;main -->
<g id="edge7" class="edge">
<title>exResp&#45;&gt;main</title>
<path fill="none" stroke="black" d="M515.63,-7.84C458.84,1.48 378.78,6.65 314.75,-20.07 288.83,-30.89 267.01,-54.64 252.72,-73.63"/>
<polygon fill="black" stroke="black" points="250.03,-71.38 247.02,-81.54 255.71,-75.47 250.03,-71.38"/>
</g>
</g>
</svg>
