<?xml version="1.0" encoding="UTF-8" standalone="no"?>
<!DOCTYPE svg PUBLIC "-//W3C//DTD SVG 1.1//EN"
 "http://www.w3.org/Graphics/SVG/1.1/DTD/svg11.dtd">
<!-- Generated by graphviz version 13.1.2 (20250808.2320)
 -->
<!-- Title: G Pages: 1 -->
<svg width="717pt" height="218pt"
 viewBox="0.00 0.00 717.00 218.00" xmlns="http://www.w3.org/2000/svg" xmlns:xlink="http://www.w3.org/1999/xlink">
<g id="graph0" class="graph" transform="scale(1 1) rotate(0) translate(4 213.77)">
<title>G</title>
<polygon fill="white" stroke="none" points="-4,4 -4,-213.77 712.5,-213.77 712.5,4 -4,4"/>
<!-- client -->
<g id="node1" class="node">
<title>client</title>
<path fill="none" stroke="black" d="M81.25,-41C81.25,-41 12,-41 12,-41 6,-41 0,-35 0,-29 0,-29 0,-12 0,-12 0,-6 6,0 12,0 12,0 81.25,0 81.25,0 87.25,0 93.25,-6 93.25,-12 93.25,-12 93.25,-29 93.25,-29 93.25,-35 87.25,-41 81.25,-41"/>
<text xml:space="preserve" text-anchor="middle" x="46.62" y="-23.7" font-family="Times New Roman,serif" font-size="14.00">Client System</text>
<text xml:space="preserve" text-anchor="middle" x="46.62" y="-7.2" font-family="Times New Roman,serif" font-size="14.00">(Loan Portal)</text>
</g>
<!-- main -->
<g id="node2" class="node">
<title>main</title>
<path fill="none" stroke="black" d="M352.12,-118C352.12,-118 281.38,-118 281.38,-118 275.38,-118 269.38,-112 269.38,-106 269.38,-106 269.38,-89 269.38,-89 269.38,-83 275.38,-77 281.38,-77 281.38,-77 352.12,-77 352.12,-77 358.12,-77 364.12,-83 364.12,-89 364.12,-89 364.12,-106 364.12,-106 364.12,-112 358.12,-118 352.12,-118"/>
<text xml:space="preserve" text-anchor="middle" x="316.75" y="-100.7" font-family="Times New Roman,serif" font-size="14.00">Main Process</text>
<text xml:space="preserve" text-anchor="middle" x="316.75" y="-84.2" font-family="Times New Roman,serif" font-size="14.00">(/creditdetails)</text>
</g>
<!-- client&#45;&gt;main -->
<g id="edge1" class="edge">
<title>client&#45;&gt;main</title>
<path fill="none" stroke="black" d="M93.72,-33.74C139.24,-46.81 208.98,-66.84 258.13,-80.95"/>
<polygon fill="black" stroke="black" points="256.88,-84.23 267.46,-83.63 258.81,-77.51 256.88,-84.23"/>
<text xml:space="preserve" text-anchor="middle" x="173.88" y="-75.79" font-family="Times New Roman,serif" font-size="14.00">POST applicant details</text>
</g>
<!-- equifax -->
<g id="node3" class="node">
<title>equifax</title>
<path fill="none" stroke="black" d="M682.62,-195.5C682.62,-195.5 569.12,-195.5 569.12,-195.5 563.12,-195.5 557.12,-189.5 557.12,-183.5 557.12,-183.5 557.12,-171.5 557.12,-171.5 557.12,-165.5 563.12,-159.5 569.12,-159.5 569.12,-159.5 682.62,-159.5 682.62,-159.5 688.62,-159.5 694.62,-165.5 694.62,-171.5 694.62,-171.5 694.62,-183.5 694.62,-183.5 694.62,-189.5 688.62,-195.5 682.62,-195.5"/>
<text xml:space="preserve" text-anchor="middle" x="625.88" y="-172.45" font-family="Times New Roman,serif" font-size="14.00">Equifax Score Service</text>
</g>
<!-- main&#45;&gt;equifax -->
<g id="edge2" class="edge">
<title>main&#45;&gt;equifax</title>
<path fill="none" stroke="black" d="M331.58,-118.26C345.54,-137.18 369,-163.89 397,-175.5 443.58,-194.82 500.26,-195.39 545.44,-191.1"/>
<polygon fill="black" stroke="black" points="545.58,-194.61 555.16,-190.08 544.84,-187.65 545.58,-194.61"/>
<text xml:space="preserve" text-anchor="middle" x="461.12" y="-196.47" font-family="Times New Roman,serif" font-size="14.00">Request Equifax score</text>
</g>
<!-- experian -->
<g id="node4" class="node">
<title>experian</title>
<path fill="none" stroke="black" d="M685.62,-107.5C685.62,-107.5 566.12,-107.5 566.12,-107.5 560.12,-107.5 554.12,-101.5 554.12,-95.5 554.12,-95.5 554.12,-83.5 554.12,-83.5 554.12,-77.5 560.12,-71.5 566.12,-71.5 566.12,-71.5 685.62,-71.5 685.62,-71.5 691.62,-71.5 697.62,-77.5 697.62,-83.5 697.62,-83.5 697.62,-95.5 697.62,-95.5 697.62,-101.5 691.62,-107.5 685.62,-107.5"/>
<text xml:space="preserve" text-anchor="middle" x="625.88" y="-84.45" font-family="Times New Roman,serif" font-size="14.00">Experian Score Service</text>
</g>
<!-- main&#45;&gt;experian -->
<g id="edge3" class="edge">
<title>main&#45;&gt;experian</title>
<path fill="none" stroke="black" d="M364.33,-97.72C406.39,-97.76 469.98,-97.43 525.25,-95.5 530.9,-95.3 536.72,-95.06 542.58,-94.78"/>
<polygon fill="black" stroke="black" points="542.55,-98.29 552.36,-94.29 542.2,-91.3 542.55,-98.29"/>
<text xml:space="preserve" text-anchor="middle" x="461.12" y="-100.85" font-family="Times New Roman,serif" font-size="14.00">Request Experian score</text>
</g>
<!-- consolidated -->
<g id="node5" class="node">
<title>consolidated</title>
<path fill="none" stroke="black" d="M696.5,-45C696.5,-45 555.25,-45 555.25,-45 549.25,-45 543.25,-39 543.25,-33 543.25,-33 543.25,-16 543.25,-16 543.25,-10 549.25,-4 555.25,-4 555.25,-4 696.5,-4 696.5,-4 702.5,-4 708.5,-10 708.5,-16 708.5,-16 708.5,-33 708.5,-33 708.5,-39 702.5,-45 696.5,-45"/>
<text xml:space="preserve" text-anchor="middle" x="625.88" y="-27.7" font-family="Times New Roman,serif" font-size="14.00">Consolidated Credit Profile</text>
<text xml:space="preserve" text-anchor="middle" x="625.88" y="-11.2" font-family="Times New Roman,serif" font-size="14.00">(Output)</text>
</g>
<!-- main&#45;&gt;consolidated -->
<g id="edge6" class="edge">
<title>main&#45;&gt;consolidated</title>
<path fill="none" stroke="black" d="M346.82,-76.5C361.23,-67.15 379.3,-56.93 397,-51 439.9,-36.63 489.59,-29.8 531.6,-26.64"/>
<polygon fill="black" stroke="black" points="531.7,-30.14 541.44,-25.96 531.22,-23.16 531.7,-30.14"/>
<text xml:space="preserve" text-anchor="middle" x="461.12" y="-54.2" font-family="Times New Roman,serif" font-size="14.00">Merge &amp; return</text>
</g>
<!-- equifax&#45;&gt;main -->
<g id="edge4" class="edge">
<title>equifax&#45;&gt;main</title>
<path fill="none" stroke="black" d="M556.8,-159.98C511.49,-148.3 450.67,-132.56 397,-118.5 389.96,-116.66 382.57,-114.71 375.25,-112.78"/>
<polygon fill="black" stroke="black" points="376.28,-109.43 365.72,-110.26 374.49,-116.2 376.28,-109.43"/>
<text xml:space="preserve" text-anchor="middle" x="461.12" y="-153.92" font-family="Times New Roman,serif" font-size="14.00">Equifax response</text>
</g>
<!-- experian&#45;&gt;main -->
<g id="edge5" class="edge">
<title>experian&#45;&gt;main</title>
<path fill="none" stroke="black" d="M553.78,-77.64C508.69,-71.93 449.22,-67.73 397,-75 389.85,-76 382.44,-77.47 375.15,-79.2"/>
<polygon fill="black" stroke="black" points="374.51,-75.75 365.69,-81.62 376.25,-82.53 374.51,-75.75"/>
<text xml:space="preserve" text-anchor="middle" x="461.12" y="-78.2" font-family="Times New Roman,serif" font-size="14.00">Experian response</text>
</g>
<!-- consolidated&#45;&gt;client -->
<g id="edge7" class="edge">
<title>consolidated&#45;&gt;client</title>
<path fill="none" stroke="black" d="M542.78,-23.65C536.85,-23.6 530.96,-23.55 525.25,-23.5 373.52,-22.26 194.68,-21.26 105,-20.79"/>
<polygon fill="black" stroke="black" points="105.26,-17.29 95.25,-20.74 105.23,-24.29 105.26,-17.29"/>
<text xml:space="preserve" text-anchor="middle" x="316.75" y="-25.57" font-family="Times New Roman,serif" font-size="14.00">Credit profile response</text>
</g>
</g>
</svg>
