<?xml version="1.0" encoding="UTF-8" standalone="no"?>
<!DOCTYPE svg PUBLIC "-//W3C//DTD SVG 1.1//EN"
 "http://www.w3.org/Graphics/SVG/1.1/DTD/svg11.dtd">
<!-- Generated by graphviz version 13.1.2 (20250808.2320)
 -->
<!-- Title: G Pages: 1 -->
<svg width="1940pt" height="106pt"
 viewBox="0.00 0.00 1940.00 106.00" xmlns="http://www.w3.org/2000/svg" xmlns:xlink="http://www.w3.org/1999/xlink">
<g id="graph0" class="graph" transform="scale(1 1) rotate(0) translate(4 102)">
<title>G</title>
<polygon fill="white" stroke="none" points="-4,4 -4,-102 1935.75,-102 1935.75,4 -4,4"/>
<!-- config -->
<g id="node1" class="node">
<title>config</title>
<path fill="none" stroke="black" d="M170.5,-98C170.5,-98 12,-98 12,-98 6,-98 0,-92 0,-86 0,-86 0,-69 0,-69 0,-63 6,-57 12,-57 12,-57 170.5,-57 170.5,-57 176.5,-57 182.5,-63 182.5,-69 182.5,-69 182.5,-86 182.5,-86 182.5,-92 176.5,-98 170.5,-98"/>
<text xml:space="preserve" text-anchor="middle" x="91.25" y="-80.7" font-family="Times New Roman,serif" font-size="14.00">Driver Configuration</text>
<text xml:space="preserve" text-anchor="middle" x="91.25" y="-64.2" font-family="Times New Roman,serif" font-size="14.00">(Database type, class, version)</text>
</g>
<!-- profile -->
<g id="node2" class="node">
<title>profile</title>
<path fill="none" stroke="black" d="M447.5,-95.5C447.5,-95.5 312.25,-95.5 312.25,-95.5 306.25,-95.5 300.25,-89.5 300.25,-83.5 300.25,-83.5 300.25,-71.5 300.25,-71.5 300.25,-65.5 306.25,-59.5 312.25,-59.5 312.25,-59.5 447.5,-59.5 447.5,-59.5 453.5,-59.5 459.5,-65.5 459.5,-71.5 459.5,-71.5 459.5,-83.5 459.5,-83.5 459.5,-89.5 453.5,-95.5 447.5,-95.5"/>
<text xml:space="preserve" text-anchor="middle" x="379.88" y="-72.45" font-family="Times New Roman,serif" font-size="14.00">Recognized Driver Profile</text>
</g>
<!-- config&#45;&gt;profile -->
<g id="edge1" class="edge">
<title>config&#45;&gt;profile</title>
<path fill="none" stroke="black" d="M182.94,-77.5C216.68,-77.5 254.95,-77.5 288.65,-77.5"/>
<polygon fill="black" stroke="black" points="288.38,-81 298.38,-77.5 288.38,-74 288.38,-81"/>
<text xml:space="preserve" text-anchor="middle" x="241.38" y="-80.7" font-family="Times New Roman,serif" font-size="14.00">Identify Driver</text>
</g>
<!-- factory -->
<g id="node3" class="node">
<title>factory</title>
<path fill="none" stroke="black" d="M886.5,-95.5C886.5,-95.5 670.25,-95.5 670.25,-95.5 664.25,-95.5 658.25,-89.5 658.25,-83.5 658.25,-83.5 658.25,-71.5 658.25,-71.5 658.25,-65.5 664.25,-59.5 670.25,-59.5 670.25,-59.5 886.5,-59.5 886.5,-59.5 892.5,-59.5 898.5,-65.5 898.5,-71.5 898.5,-71.5 898.5,-83.5 898.5,-83.5 898.5,-89.5 892.5,-95.5 886.5,-95.5"/>
<text xml:space="preserve" text-anchor="middle" x="778.38" y="-72.45" font-family="Times New Roman,serif" font-size="14.00">TIBCO BW Custom DataSource Factory</text>
</g>
<!-- profile&#45;&gt;factory -->
<g id="edge2" class="edge">
<title>profile&#45;&gt;factory</title>
<path fill="none" stroke="black" d="M459.68,-77.5C513.05,-77.5 584.82,-77.5 646.65,-77.5"/>
<polygon fill="black" stroke="black" points="646.56,-81 656.56,-77.5 646.56,-74 646.56,-81"/>
<text xml:space="preserve" text-anchor="middle" x="558.88" y="-80.7" font-family="Times New Roman,serif" font-size="14.00">Provide Profile &amp; Credentials</text>
</g>
<!-- connection -->
<g id="node4" class="node">
<title>connection</title>
<path fill="none" stroke="black" d="M1183.75,-95.5C1183.75,-95.5 1047.75,-95.5 1047.75,-95.5 1041.75,-95.5 1035.75,-89.5 1035.75,-83.5 1035.75,-83.5 1035.75,-71.5 1035.75,-71.5 1035.75,-65.5 1041.75,-59.5 1047.75,-59.5 1047.75,-59.5 1183.75,-59.5 1183.75,-59.5 1189.75,-59.5 1195.75,-65.5 1195.75,-71.5 1195.75,-71.5 1195.75,-83.5 1195.75,-83.5 1195.75,-89.5 1189.75,-95.5 1183.75,-95.5"/>
<text xml:space="preserve" text-anchor="middle" x="1115.75" y="-72.45" font-family="Times New Roman,serif" font-size="14.00">Live Database Connection</text>
</g>
<!-- factory&#45;&gt;connection -->
<g id="edge3" class="edge">
<title>factory&#45;&gt;connection</title>
<path fill="none" stroke="black" d="M898.56,-77.5C939.86,-77.5 985.45,-77.5 1024.08,-77.5"/>
<polygon fill="black" stroke="black" points="1023.79,-81 1033.79,-77.5 1023.79,-74 1023.79,-81"/>
<text xml:space="preserve" text-anchor="middle" x="967.12" y="-80.7" font-family="Times New Roman,serif" font-size="14.00">Create Connection</text>
</g>
<!-- query -->
<g id="node6" class="node">
<title>query</title>
<path fill="none" stroke="black" d="M1453.25,-54.5C1453.25,-54.5 1330.75,-54.5 1330.75,-54.5 1324.75,-54.5 1318.75,-48.5 1318.75,-42.5 1318.75,-42.5 1318.75,-30.5 1318.75,-30.5 1318.75,-24.5 1324.75,-18.5 1330.75,-18.5 1330.75,-18.5 1453.25,-18.5 1453.25,-18.5 1459.25,-18.5 1465.25,-24.5 1465.25,-30.5 1465.25,-30.5 1465.25,-42.5 1465.25,-42.5 1465.25,-48.5 1459.25,-54.5 1453.25,-54.5"/>
<text xml:space="preserve" text-anchor="middle" x="1392" y="-31.45" font-family="Times New Roman,serif" font-size="14.00">SQL Queries via Driver</text>
</g>
<!-- connection&#45;&gt;query -->
<g id="edge5" class="edge">
<title>connection&#45;&gt;query</title>
<path fill="none" stroke="black" d="M1196.02,-66.01C1228.49,-61.27 1266.43,-55.68 1300.75,-50.5 1302.93,-50.17 1305.13,-49.84 1307.35,-49.5"/>
<polygon fill="black" stroke="black" points="1307.74,-52.98 1317.1,-48.01 1306.69,-46.06 1307.74,-52.98"/>
</g>
<!-- process -->
<g id="node5" class="node">
<title>process</title>
<path fill="none" stroke="black" d="M1181.88,-41C1181.88,-41 1049.62,-41 1049.62,-41 1043.62,-41 1037.62,-35 1037.62,-29 1037.62,-29 1037.62,-12 1037.62,-12 1037.62,-6 1043.62,0 1049.62,0 1049.62,0 1181.88,0 1181.88,0 1187.88,0 1193.88,-6 1193.88,-12 1193.88,-12 1193.88,-29 1193.88,-29 1193.88,-35 1187.88,-41 1181.88,-41"/>
<text xml:space="preserve" text-anchor="middle" x="1115.75" y="-23.7" font-family="Times New Roman,serif" font-size="14.00">Business Process Request</text>
<text xml:space="preserve" text-anchor="middle" x="1115.75" y="-7.2" font-family="Times New Roman,serif" font-size="14.00">(e.g., Search, Update)</text>
</g>
<!-- process&#45;&gt;query -->
<g id="edge4" class="edge">
<title>process&#45;&gt;query</title>
<path fill="none" stroke="black" d="M1194.24,-25.02C1229.4,-27.07 1271.06,-29.5 1306.97,-31.6"/>
<polygon fill="black" stroke="black" points="1306.71,-35.09 1316.9,-32.18 1307.12,-28.1 1306.71,-35.09"/>
<text xml:space="preserve" text-anchor="middle" x="1257.25" y="-34.07" font-family="Times New Roman,serif" font-size="14.00">Use Connection</text>
</g>
<!-- results -->
<g id="node7" class="node">
<title>results</title>
<path fill="none" stroke="black" d="M1662.75,-54.5C1662.75,-54.5 1593.5,-54.5 1593.5,-54.5 1587.5,-54.5 1581.5,-48.5 1581.5,-42.5 1581.5,-42.5 1581.5,-30.5 1581.5,-30.5 1581.5,-24.5 1587.5,-18.5 1593.5,-18.5 1593.5,-18.5 1662.75,-18.5 1662.75,-18.5 1668.75,-18.5 1674.75,-24.5 1674.75,-30.5 1674.75,-30.5 1674.75,-42.5 1674.75,-42.5 1674.75,-48.5 1668.75,-54.5 1662.75,-54.5"/>
<text xml:space="preserve" text-anchor="middle" x="1628.12" y="-31.45" font-family="Times New Roman,serif" font-size="14.00">Query Results</text>
</g>
<!-- query&#45;&gt;results -->
<g id="edge6" class="edge">
<title>query&#45;&gt;results</title>
<path fill="none" stroke="black" d="M1465.48,-36.5C1499.09,-36.5 1538.46,-36.5 1569.93,-36.5"/>
<polygon fill="black" stroke="black" points="1569.63,-40 1579.63,-36.5 1569.63,-33 1569.63,-40"/>
<text xml:space="preserve" text-anchor="middle" x="1523.38" y="-39.7" font-family="Times New Roman,serif" font-size="14.00">Return Results</text>
</g>
<!-- structured -->
<g id="node8" class="node">
<title>structured</title>
<path fill="none" stroke="black" d="M1919.75,-54.5C1919.75,-54.5 1723.75,-54.5 1723.75,-54.5 1717.75,-54.5 1711.75,-48.5 1711.75,-42.5 1711.75,-42.5 1711.75,-30.5 1711.75,-30.5 1711.75,-24.5 1717.75,-18.5 1723.75,-18.5 1723.75,-18.5 1919.75,-18.5 1919.75,-18.5 1925.75,-18.5 1931.75,-24.5 1931.75,-30.5 1931.75,-30.5 1931.75,-42.5 1931.75,-42.5 1931.75,-48.5 1925.75,-54.5 1919.75,-54.5"/>
<text xml:space="preserve" text-anchor="middle" x="1821.75" y="-31.45" font-family="Times New Roman,serif" font-size="14.00">Structured Data for Decision&#45;Making</text>
</g>
<!-- results&#45;&gt;structured -->
<g id="edge7" class="edge">
<title>results&#45;&gt;structured</title>
<path fill="none" stroke="black" d="M1675.02,-36.5C1682.89,-36.5 1691.37,-36.5 1700.16,-36.5"/>
<polygon fill="black" stroke="black" points="1699.9,-40 1709.9,-36.5 1699.9,-33 1699.9,-40"/>
</g>
</g>
</svg>
