<?xml version="1.0" encoding="UTF-8" standalone="no"?>
<!DOCTYPE svg PUBLIC "-//W3C//DTD SVG 1.1//EN"
 "http://www.w3.org/Graphics/SVG/1.1/DTD/svg11.dtd">
<!-- Generated by graphviz version 13.1.2 (20250808.2320)
 -->
<!-- Title: G Pages: 1 -->
<svg width="1096pt" height="268pt"
 viewBox="0.00 0.00 1096.00 268.00" xmlns="http://www.w3.org/2000/svg" xmlns:xlink="http://www.w3.org/1999/xlink">
<g id="graph0" class="graph" transform="scale(1 1) rotate(0) translate(4 264.4)">
<title>G</title>
<polygon fill="white" stroke="none" points="-4,4 -4,-264.4 1092.25,-264.4 1092.25,4 -4,4"/>
<!-- Requester -->
<g id="node1" class="node">
<title>Requester</title>
<path fill="none" stroke="black" d="M161.5,-74C161.5,-74 12,-74 12,-74 6,-74 0,-68 0,-62 0,-62 0,-50 0,-50 0,-44 6,-38 12,-38 12,-38 161.5,-38 161.5,-38 167.5,-38 173.5,-44 173.5,-50 173.5,-50 173.5,-62 173.5,-62 173.5,-68 167.5,-74 161.5,-74"/>
<text xml:space="preserve" text-anchor="middle" x="86.75" y="-50.95" font-family="Times New Roman,serif" font-size="14.00">Requesting Process / Service</text>
</g>
<!-- CustomProps -->
<g id="node2" class="node">
<title>CustomProps</title>
<path fill="none" stroke="black" d="M637.25,-169.5C637.25,-169.5 361,-169.5 361,-169.5 355,-169.5 349,-163.5 349,-157.5 349,-157.5 349,-140.5 349,-140.5 349,-134.5 355,-128.5 361,-128.5 361,-128.5 637.25,-128.5 637.25,-128.5 643.25,-128.5 649.25,-134.5 649.25,-140.5 649.25,-140.5 649.25,-157.5 649.25,-157.5 649.25,-163.5 643.25,-169.5 637.25,-169.5"/>
<text xml:space="preserve" text-anchor="middle" x="499.12" y="-152.2" font-family="Times New Roman,serif" font-size="14.00">Custom App Properties Process</text>
<text xml:space="preserve" text-anchor="middle" x="499.12" y="-135.7" font-family="Times New Roman,serif" font-size="14.00">(com.tibco.bw.custom.app.props.CustomAppProps)</text>
</g>
<!-- Requester&#45;&gt;CustomProps -->
<g id="edge1" class="edge">
<title>Requester&#45;&gt;CustomProps</title>
<path fill="none" stroke="black" d="M169.32,-74.48C233.99,-89.14 324.8,-109.72 394.6,-125.54"/>
<polygon fill="black" stroke="black" points="393.61,-128.9 404.14,-127.7 395.16,-122.08 393.61,-128.9"/>
<text xml:space="preserve" text-anchor="middle" x="261.25" y="-114.03" font-family="Times New Roman,serif" font-size="14.00">Request for configuration</text>
</g>
<!-- ConfigSource -->
<g id="node3" class="node">
<title>ConfigSource</title>
<path fill="none" stroke="black" d="M1032.38,-254C1032.38,-254 923.38,-254 923.38,-254 917.38,-254 911.38,-248 911.38,-242 911.38,-242 911.38,-230 911.38,-230 911.38,-224 917.38,-218 923.38,-218 923.38,-218 1032.38,-218 1032.38,-218 1038.38,-218 1044.38,-224 1044.38,-230 1044.38,-230 1044.38,-242 1044.38,-242 1044.38,-248 1038.38,-254 1032.38,-254"/>
<text xml:space="preserve" text-anchor="middle" x="977.88" y="-230.95" font-family="Times New Roman,serif" font-size="14.00">Configuration Source</text>
</g>
<!-- CustomProps&#45;&gt;ConfigSource -->
<g id="edge2" class="edge">
<title>CustomProps&#45;&gt;ConfigSource</title>
<path fill="none" stroke="black" d="M594.94,-169.92C618.51,-174.83 643.75,-179.84 667.25,-184 747.85,-198.28 768.84,-196.57 849.5,-210.5 865.75,-213.31 883.11,-216.59 899.62,-219.85"/>
<polygon fill="black" stroke="black" points="898.91,-223.28 909.41,-221.8 900.28,-216.41 898.91,-223.28"/>
<text xml:space="preserve" text-anchor="middle" x="758.38" y="-213.7" font-family="Times New Roman,serif" font-size="14.00">Lookup property</text>
</g>
<!-- Response -->
<g id="node4" class="node">
<title>Response</title>
<path fill="none" stroke="black" d="M1076.25,-36C1076.25,-36 879.5,-36 879.5,-36 873.5,-36 867.5,-30 867.5,-24 867.5,-24 867.5,-12 867.5,-12 867.5,-6 873.5,0 879.5,0 879.5,0 1076.25,0 1076.25,0 1082.25,0 1088.25,-6 1088.25,-12 1088.25,-12 1088.25,-24 1088.25,-24 1088.25,-30 1082.25,-36 1076.25,-36"/>
<text xml:space="preserve" text-anchor="middle" x="977.88" y="-12.95" font-family="Times New Roman,serif" font-size="14.00">Property Value (Structured Response)</text>
</g>
<!-- CustomProps&#45;&gt;Response -->
<g id="edge4" class="edge">
<title>CustomProps&#45;&gt;Response</title>
<path fill="none" stroke="black" d="M559.32,-128.04C591.12,-117.11 631.11,-103.89 667.25,-93.5 738.86,-72.92 820.81,-53.1 882.4,-38.93"/>
<polygon fill="black" stroke="black" points="882.83,-42.43 891.79,-36.78 881.27,-35.6 882.83,-42.43"/>
<text xml:space="preserve" text-anchor="middle" x="758.38" y="-96.7" font-family="Times New Roman,serif" font-size="14.00">Return value if found</text>
</g>
<!-- Error -->
<g id="node5" class="node">
<title>Error</title>
<path fill="none" stroke="black" d="M1033.88,-119C1033.88,-119 921.88,-119 921.88,-119 915.88,-119 909.88,-113 909.88,-107 909.88,-107 909.88,-95 909.88,-95 909.88,-89 915.88,-83 921.88,-83 921.88,-83 1033.88,-83 1033.88,-83 1039.88,-83 1045.88,-89 1045.88,-95 1045.88,-95 1045.88,-107 1045.88,-107 1045.88,-113 1039.88,-119 1033.88,-119"/>
<text xml:space="preserve" text-anchor="middle" x="977.88" y="-95.95" font-family="Times New Roman,serif" font-size="14.00">Error / Fallback Value</text>
</g>
<!-- CustomProps&#45;&gt;Error -->
<g id="edge5" class="edge">
<title>CustomProps&#45;&gt;Error</title>
<path fill="none" stroke="black" d="M649.66,-133.94C732.01,-125.65 830.86,-115.7 898.21,-108.92"/>
<polygon fill="black" stroke="black" points="898.47,-112.41 908.07,-107.93 897.77,-105.45 898.47,-112.41"/>
<text xml:space="preserve" text-anchor="middle" x="758.38" y="-135.3" font-family="Times New Roman,serif" font-size="14.00">Return error/fallback if not found</text>
</g>
<!-- Logger -->
<g id="node6" class="node">
<title>Logger</title>
<path fill="none" stroke="black" d="M996.75,-187C996.75,-187 959,-187 959,-187 953,-187 947,-181 947,-175 947,-175 947,-163 947,-163 947,-157 953,-151 959,-151 959,-151 996.75,-151 996.75,-151 1002.75,-151 1008.75,-157 1008.75,-163 1008.75,-163 1008.75,-175 1008.75,-175 1008.75,-181 1002.75,-187 996.75,-187"/>
<text xml:space="preserve" text-anchor="middle" x="977.88" y="-163.95" font-family="Times New Roman,serif" font-size="14.00">Logging</text>
</g>
<!-- CustomProps&#45;&gt;Logger -->
<g id="edge6" class="edge">
<title>CustomProps&#45;&gt;Logger</title>
<path fill="none" stroke="black" d="M649.66,-155.27C748.95,-159.44 872.22,-164.61 935.35,-167.26"/>
<polygon fill="black" stroke="black" points="935.14,-170.75 945.27,-167.67 935.43,-163.76 935.14,-170.75"/>
<text xml:space="preserve" text-anchor="middle" x="758.38" y="-166.84" font-family="Times New Roman,serif" font-size="14.00">Log missing/invalid property</text>
</g>
<!-- ConfigSource&#45;&gt;CustomProps -->
<g id="edge3" class="edge">
<title>ConfigSource&#45;&gt;CustomProps</title>
<path fill="none" stroke="black" d="M910.93,-241.73C847.55,-245.45 749.53,-246.51 667.25,-227 623.06,-216.52 576.54,-193.71 543.83,-175.45"/>
<polygon fill="black" stroke="black" points="545.88,-172.59 535.46,-170.7 542.43,-178.68 545.88,-172.59"/>
<text xml:space="preserve" text-anchor="middle" x="758.38" y="-247.1" font-family="Times New Roman,serif" font-size="14.00">Property value or not found</text>
</g>
<!-- Response&#45;&gt;Requester -->
<g id="edge7" class="edge">
<title>Response&#45;&gt;Requester</title>
<path fill="none" stroke="black" d="M867.24,-13.02C741.8,-8.45 530.28,-4.21 349,-17.5 294.49,-21.49 234.1,-30.12 185.12,-38.19"/>
<polygon fill="black" stroke="black" points="184.67,-34.72 175.38,-39.82 185.82,-41.62 184.67,-34.72"/>
<text xml:space="preserve" text-anchor="middle" x="499.12" y="-20.7" font-family="Times New Roman,serif" font-size="14.00">Send value</text>
</g>
<!-- Error&#45;&gt;Requester -->
<g id="edge8" class="edge">
<title>Error&#45;&gt;Requester</title>
<path fill="none" stroke="black" d="M912.92,-82.52C892.8,-77.49 870.38,-72.7 849.5,-70 612.34,-39.34 330.24,-45 184.95,-50.98"/>
<polygon fill="black" stroke="black" points="185.24,-47.46 175.39,-51.38 185.53,-54.46 185.24,-47.46"/>
<text xml:space="preserve" text-anchor="middle" x="499.12" y="-55.07" font-family="Times New Roman,serif" font-size="14.00">Send error/fallback</text>
</g>
</g>
</svg>
