<?xml version="1.0" encoding="UTF-8" standalone="no"?>
<!DOCTYPE svg PUBLIC "-//W3C//DTD SVG 1.1//EN"
 "http://www.w3.org/Graphics/SVG/1.1/DTD/svg11.dtd">
<!-- Generated by graphviz version 13.1.2 (20250808.2320)
 -->
<!-- Title: G Pages: 1 -->
<svg width="626pt" height="158pt"
 viewBox="0.00 0.00 626.00 158.00" xmlns="http://www.w3.org/2000/svg" xmlns:xlink="http://www.w3.org/1999/xlink">
<g id="graph0" class="graph" transform="scale(1 1) rotate(0) translate(4 153.5)">
<title>G</title>
<polygon fill="white" stroke="none" points="-4,4 -4,-153.5 622.25,-153.5 622.25,4 -4,4"/>
<!-- driver -->
<g id="node1" class="node">
<title>driver</title>
<path fill="none" stroke="black" d="M290.25,-90C290.25,-90 179.75,-90 179.75,-90 173.75,-90 167.75,-84 167.75,-78 167.75,-78 167.75,-66 167.75,-66 167.75,-60 173.75,-54 179.75,-54 179.75,-54 290.25,-54 290.25,-54 296.25,-54 302.25,-60 302.25,-66 302.25,-66 302.25,-78 302.25,-78 302.25,-84 296.25,-90 290.25,-90"/>
<text xml:space="preserve" text-anchor="middle" x="235" y="-66.95" font-family="Times New Roman,serif" font-size="14.00">Custom JDBC Driver</text>
</g>
<!-- processes -->
<g id="node3" class="node">
<title>processes</title>
<path fill="none" stroke="black" d="M606.25,-149.5C606.25,-149.5 461.25,-149.5 461.25,-149.5 455.25,-149.5 449.25,-143.5 449.25,-137.5 449.25,-137.5 449.25,-120.5 449.25,-120.5 449.25,-114.5 455.25,-108.5 461.25,-108.5 461.25,-108.5 606.25,-108.5 606.25,-108.5 612.25,-108.5 618.25,-114.5 618.25,-120.5 618.25,-120.5 618.25,-137.5 618.25,-137.5 618.25,-143.5 612.25,-149.5 606.25,-149.5"/>
<text xml:space="preserve" text-anchor="middle" x="533.75" y="-132.2" font-family="Times New Roman,serif" font-size="14.00">Business Processes</text>
<text xml:space="preserve" text-anchor="middle" x="533.75" y="-115.7" font-family="Times New Roman,serif" font-size="14.00">(e.g., Credit Check, Search)</text>
</g>
<!-- driver&#45;&gt;processes -->
<g id="edge2" class="edge">
<title>driver&#45;&gt;processes</title>
<path fill="none" stroke="black" d="M302.58,-89.09C308.54,-90.47 314.5,-91.8 320.25,-93 358.5,-101 400.92,-108.46 437.72,-114.49"/>
<polygon fill="black" stroke="black" points="437.03,-117.93 447.46,-116.08 438.15,-111.02 437.03,-117.93"/>
<text xml:space="preserve" text-anchor="middle" x="375.75" y="-116.43" font-family="Times New Roman,serif" font-size="14.00">Provides DB Access</text>
</g>
<!-- logging -->
<g id="node4" class="node">
<title>logging</title>
<path fill="none" stroke="black" d="M574.75,-90C574.75,-90 492.75,-90 492.75,-90 486.75,-90 480.75,-84 480.75,-78 480.75,-78 480.75,-66 480.75,-66 480.75,-60 486.75,-54 492.75,-54 492.75,-54 574.75,-54 574.75,-54 580.75,-54 586.75,-60 586.75,-66 586.75,-66 586.75,-78 586.75,-78 586.75,-84 580.75,-90 574.75,-90"/>
<text xml:space="preserve" text-anchor="middle" x="533.75" y="-66.95" font-family="Times New Roman,serif" font-size="14.00">Logging Service</text>
</g>
<!-- driver&#45;&gt;logging -->
<g id="edge3" class="edge">
<title>driver&#45;&gt;logging</title>
<path fill="none" stroke="black" d="M302.6,-72C352.43,-72 420.16,-72 469.23,-72"/>
<polygon fill="black" stroke="black" points="469.14,-75.5 479.14,-72 469.14,-68.5 469.14,-75.5"/>
<text xml:space="preserve" text-anchor="middle" x="375.75" y="-75.2" font-family="Times New Roman,serif" font-size="14.00">Error Logs</text>
</g>
<!-- credit -->
<g id="node5" class="node">
<title>credit</title>
<path fill="none" stroke="black" d="M587.88,-36C587.88,-36 479.62,-36 479.62,-36 473.62,-36 467.62,-30 467.62,-24 467.62,-24 467.62,-12 467.62,-12 467.62,-6 473.62,0 479.62,0 479.62,0 587.88,0 587.88,0 593.88,0 599.88,-6 599.88,-12 599.88,-12 599.88,-24 599.88,-24 599.88,-30 593.88,-36 587.88,-36"/>
<text xml:space="preserve" text-anchor="middle" x="533.75" y="-12.95" font-family="Times New Roman,serif" font-size="14.00">Credit Check Service</text>
</g>
<!-- driver&#45;&gt;credit -->
<g id="edge4" class="edge">
<title>driver&#45;&gt;credit</title>
<path fill="none" stroke="black" d="M302.57,-55.27C308.54,-53.93 314.49,-52.65 320.25,-51.5 365.11,-42.52 415.68,-34.47 456.24,-28.51"/>
<polygon fill="black" stroke="black" points="456.51,-32 465.9,-27.1 455.5,-25.08 456.51,-32"/>
<text xml:space="preserve" text-anchor="middle" x="375.75" y="-54.7" font-family="Times New Roman,serif" font-size="14.00">Database Lookups</text>
</g>
<!-- config -->
<g id="node2" class="node">
<title>config</title>
<path fill="none" stroke="black" d="M118.75,-90C118.75,-90 12,-90 12,-90 6,-90 0,-84 0,-78 0,-78 0,-66 0,-66 0,-60 6,-54 12,-54 12,-54 118.75,-54 118.75,-54 124.75,-54 130.75,-60 130.75,-66 130.75,-66 130.75,-78 130.75,-78 130.75,-84 124.75,-90 118.75,-90"/>
<text xml:space="preserve" text-anchor="middle" x="65.38" y="-66.95" font-family="Times New Roman,serif" font-size="14.00">Driver Configuration</text>
</g>
<!-- config&#45;&gt;driver -->
<g id="edge1" class="edge">
<title>config&#45;&gt;driver</title>
<path fill="none" stroke="black" d="M131.18,-72C139.35,-72 147.78,-72 156.12,-72"/>
<polygon fill="black" stroke="black" points="155.91,-75.5 165.91,-72 155.91,-68.5 155.91,-75.5"/>
</g>
</g>
</svg>
