<?xml version="1.0" encoding="UTF-8" standalone="no"?>
<!DOCTYPE svg PUBLIC "-//W3C//DTD SVG 1.1//EN"
 "http://www.w3.org/Graphics/SVG/1.1/DTD/svg11.dtd">
<!-- Generated by graphviz version 13.1.2 (20250808.2320)
 -->
<!-- Title: G Pages: 1 -->
<svg width="792pt" height="212pt"
 viewBox="0.00 0.00 792.00 212.00" xmlns="http://www.w3.org/2000/svg" xmlns:xlink="http://www.w3.org/1999/xlink">
<g id="graph0" class="graph" transform="scale(1 1) rotate(0) translate(4 207.5)">
<title>G</title>
<polygon fill="white" stroke="none" points="-4,4 -4,-207.5 787.75,-207.5 787.75,4 -4,4"/>
<!-- EventSource -->
<g id="node1" class="node">
<title>EventSource</title>
<path fill="none" stroke="black" d="M158.5,-125C158.5,-125 12,-125 12,-125 6,-125 0,-119 0,-113 0,-113 0,-96 0,-96 0,-90 6,-84 12,-84 12,-84 158.5,-84 158.5,-84 164.5,-84 170.5,-90 170.5,-96 170.5,-96 170.5,-113 170.5,-113 170.5,-119 164.5,-125 158.5,-125"/>
<text xml:space="preserve" text-anchor="middle" x="85.25" y="-107.7" font-family="Times New Roman,serif" font-size="14.00">Event Source</text>
<text xml:space="preserve" text-anchor="middle" x="85.25" y="-91.2" font-family="Times New Roman,serif" font-size="14.00">(publishes execution events)</text>
</g>
<!-- Subscriber -->
<g id="node2" class="node">
<title>Subscriber</title>
<path fill="none" stroke="black" d="M464,-125C464,-125 309.25,-125 309.25,-125 303.25,-125 297.25,-119 297.25,-113 297.25,-113 297.25,-96 297.25,-96 297.25,-90 303.25,-84 309.25,-84 309.25,-84 464,-84 464,-84 470,-84 476,-90 476,-96 476,-96 476,-113 476,-113 476,-119 470,-125 464,-125"/>
<text xml:space="preserve" text-anchor="middle" x="386.62" y="-107.7" font-family="Times New Roman,serif" font-size="14.00">Execution Event Subscriber</text>
<text xml:space="preserve" text-anchor="middle" x="386.62" y="-91.2" font-family="Times New Roman,serif" font-size="14.00">(captures &amp; processes events)</text>
</g>
<!-- EventSource&#45;&gt;Subscriber -->
<g id="edge1" class="edge">
<title>EventSource&#45;&gt;Subscriber</title>
<path fill="none" stroke="black" d="M170.84,-104.5C206.49,-104.5 248.25,-104.5 285.43,-104.5"/>
<polygon fill="black" stroke="black" points="285.3,-108 295.3,-104.5 285.3,-101 285.3,-108"/>
<text xml:space="preserve" text-anchor="middle" x="233.88" y="-107.7" font-family="Times New Roman,serif" font-size="14.00">execution events</text>
</g>
<!-- Topics -->
<g id="node3" class="node">
<title>Topics</title>
<path fill="none" stroke="black" d="M722.62,-203.5C722.62,-203.5 665.38,-203.5 665.38,-203.5 659.38,-203.5 653.38,-197.5 653.38,-191.5 653.38,-191.5 653.38,-179.5 653.38,-179.5 653.38,-173.5 659.38,-167.5 665.38,-167.5 665.38,-167.5 722.62,-167.5 722.62,-167.5 728.62,-167.5 734.62,-173.5 734.62,-179.5 734.62,-179.5 734.62,-191.5 734.62,-191.5 734.62,-197.5 728.62,-203.5 722.62,-203.5"/>
<text xml:space="preserve" text-anchor="middle" x="694" y="-180.45" font-family="Times New Roman,serif" font-size="14.00">event.topics</text>
</g>
<!-- Subscriber&#45;&gt;Topics -->
<g id="edge2" class="edge">
<title>Subscriber&#45;&gt;Topics</title>
<path fill="none" stroke="black" d="M441.84,-125.41C458.44,-131.39 476.84,-137.6 494,-142.5 543.6,-156.65 601.32,-168.64 641.78,-176.34"/>
<polygon fill="black" stroke="black" points="641.02,-179.76 651.49,-178.16 642.31,-172.88 641.02,-179.76"/>
<text xml:space="preserve" text-anchor="middle" x="540.12" y="-168.26" font-family="Times New Roman,serif" font-size="14.00">extract</text>
</g>
<!-- Type -->
<g id="node4" class="node">
<title>Type</title>
<path fill="none" stroke="black" d="M718.12,-149.5C718.12,-149.5 669.88,-149.5 669.88,-149.5 663.88,-149.5 657.88,-143.5 657.88,-137.5 657.88,-137.5 657.88,-125.5 657.88,-125.5 657.88,-119.5 663.88,-113.5 669.88,-113.5 669.88,-113.5 718.12,-113.5 718.12,-113.5 724.12,-113.5 730.12,-119.5 730.12,-125.5 730.12,-125.5 730.12,-137.5 730.12,-137.5 730.12,-143.5 724.12,-149.5 718.12,-149.5"/>
<text xml:space="preserve" text-anchor="middle" x="694" y="-126.45" font-family="Times New Roman,serif" font-size="14.00">event.type</text>
</g>
<!-- Subscriber&#45;&gt;Type -->
<g id="edge3" class="edge">
<title>Subscriber&#45;&gt;Type</title>
<path fill="none" stroke="black" d="M476.36,-112.35C531.93,-117.26 601.28,-123.39 646.33,-127.37"/>
<polygon fill="black" stroke="black" points="645.74,-130.83 656.01,-128.23 646.35,-123.86 645.74,-130.83"/>
<text xml:space="preserve" text-anchor="middle" x="540.12" y="-125.2" font-family="Times New Roman,serif" font-size="14.00">extract</text>
</g>
<!-- Logging -->
<g id="node5" class="node">
<title>Logging</title>
<path fill="none" stroke="black" d="M771.75,-95.5C771.75,-95.5 616.25,-95.5 616.25,-95.5 610.25,-95.5 604.25,-89.5 604.25,-83.5 604.25,-83.5 604.25,-71.5 604.25,-71.5 604.25,-65.5 610.25,-59.5 616.25,-59.5 616.25,-59.5 771.75,-59.5 771.75,-59.5 777.75,-59.5 783.75,-65.5 783.75,-71.5 783.75,-71.5 783.75,-83.5 783.75,-83.5 783.75,-89.5 777.75,-95.5 771.75,-95.5"/>
<text xml:space="preserve" text-anchor="middle" x="694" y="-72.45" font-family="Times New Roman,serif" font-size="14.00">Logging / Monitoring Service</text>
</g>
<!-- Subscriber&#45;&gt;Logging -->
<g id="edge4" class="edge">
<title>Subscriber&#45;&gt;Logging</title>
<path fill="none" stroke="black" d="M476.42,-95.63C482.37,-95.07 488.27,-94.52 494,-94 525.98,-91.1 560.87,-88.13 592.38,-85.53"/>
<polygon fill="black" stroke="black" points="592.63,-89.03 602.31,-84.72 592.06,-82.05 592.63,-89.03"/>
<text xml:space="preserve" text-anchor="middle" x="540.12" y="-97.2" font-family="Times New Roman,serif" font-size="14.00">structured output</text>
</g>
<!-- Downstream -->
<g id="node6" class="node">
<title>Downstream</title>
<path fill="none" stroke="black" d="M757.5,-41C757.5,-41 630.5,-41 630.5,-41 624.5,-41 618.5,-35 618.5,-29 618.5,-29 618.5,-12 618.5,-12 618.5,-6 624.5,0 630.5,0 630.5,0 757.5,0 757.5,0 763.5,0 769.5,-6 769.5,-12 769.5,-12 769.5,-29 769.5,-29 769.5,-35 763.5,-41 757.5,-41"/>
<text xml:space="preserve" text-anchor="middle" x="694" y="-23.7" font-family="Times New Roman,serif" font-size="14.00">Downstream Consumers</text>
<text xml:space="preserve" text-anchor="middle" x="694" y="-7.2" font-family="Times New Roman,serif" font-size="14.00">(reporting, alerts, etc.)</text>
</g>
<!-- Subscriber&#45;&gt;Downstream -->
<g id="edge5" class="edge">
<title>Subscriber&#45;&gt;Downstream</title>
<path fill="none" stroke="black" d="M441.59,-83.52C458.25,-77.43 476.76,-71.07 494,-66 530.66,-55.22 571.75,-45.45 607.02,-37.75"/>
<polygon fill="black" stroke="black" points="607.74,-41.17 616.78,-35.64 606.26,-34.33 607.74,-41.17"/>
<text xml:space="preserve" text-anchor="middle" x="540.12" y="-69.2" font-family="Times New Roman,serif" font-size="14.00">structured output</text>
</g>
</g>
</svg>
