<?xml version="1.0" encoding="UTF-8" standalone="no"?>
<!DOCTYPE svg PUBLIC "-//W3C//DTD SVG 1.1//EN"
 "http://www.w3.org/Graphics/SVG/1.1/DTD/svg11.dtd">
<!-- Generated by graphviz version 13.1.2 (20250808.2320)
 -->
<!-- Title: G Pages: 1 -->
<svg width="1656pt" height="74pt"
 viewBox="0.00 0.00 1656.00 74.00" xmlns="http://www.w3.org/2000/svg" xmlns:xlink="http://www.w3.org/1999/xlink">
<g id="graph0" class="graph" transform="scale(1 1) rotate(0) translate(4 70)">
<title>G</title>
<polygon fill="white" stroke="none" points="-4,4 -4,-70 1651.75,-70 1651.75,4 -4,4"/>
<!-- client -->
<g id="node1" class="node">
<title>client</title>
<path fill="none" stroke="black" d="M81.25,-36C81.25,-36 12,-36 12,-36 6,-36 0,-30 0,-24 0,-24 0,-12 0,-12 0,-6 6,0 12,0 12,0 81.25,0 81.25,0 87.25,0 93.25,-6 93.25,-12 93.25,-12 93.25,-24 93.25,-24 93.25,-30 87.25,-36 81.25,-36"/>
<text xml:space="preserve" text-anchor="middle" x="46.62" y="-12.95" font-family="Times New Roman,serif" font-size="14.00">Client / Caller</text>
</g>
<!-- endpoint -->
<g id="node2" class="node">
<title>endpoint</title>
<path fill="none" stroke="black" d="M368,-66C368,-66 267.25,-66 267.25,-66 261.25,-66 255.25,-60 255.25,-54 255.25,-54 255.25,-42 255.25,-42 255.25,-36 261.25,-30 267.25,-30 267.25,-30 368,-30 368,-30 374,-30 380,-36 380,-42 380,-42 380,-54 380,-54 380,-60 374,-66 368,-66"/>
<text xml:space="preserve" text-anchor="middle" x="317.62" y="-42.95" font-family="Times New Roman,serif" font-size="14.00">/creditscore (POST)</text>
</g>
<!-- client&#45;&gt;endpoint -->
<g id="edge1" class="edge">
<title>client&#45;&gt;endpoint</title>
<path fill="none" stroke="black" d="M93.56,-23.12C134.82,-27.72 196.1,-34.56 243.99,-39.9"/>
<polygon fill="black" stroke="black" points="243.4,-43.36 253.73,-40.99 244.18,-36.4 243.4,-43.36"/>
<text xml:space="preserve" text-anchor="middle" x="174.25" y="-42.34" font-family="Times New Roman,serif" font-size="14.00">HTTP Request (JSON)</text>
</g>
<!-- parser -->
<g id="node3" class="node">
<title>parser</title>
<path fill="none" stroke="black" d="M634.5,-66C634.5,-66 518.75,-66 518.75,-66 512.75,-66 506.75,-60 506.75,-54 506.75,-54 506.75,-42 506.75,-42 506.75,-36 512.75,-30 518.75,-30 518.75,-30 634.5,-30 634.5,-30 640.5,-30 646.5,-36 646.5,-42 646.5,-42 646.5,-54 646.5,-54 646.5,-60 640.5,-66 634.5,-66"/>
<text xml:space="preserve" text-anchor="middle" x="576.62" y="-42.95" font-family="Times New Roman,serif" font-size="14.00">Parse &amp; Validate Input</text>
</g>
<!-- endpoint&#45;&gt;parser -->
<g id="edge2" class="edge">
<title>endpoint&#45;&gt;parser</title>
<path fill="none" stroke="black" d="M380.18,-48C414.63,-48 457.99,-48 495.11,-48"/>
<polygon fill="black" stroke="black" points="494.9,-51.5 504.9,-48 494.9,-44.5 494.9,-51.5"/>
<text xml:space="preserve" text-anchor="middle" x="443.38" y="-51.2" font-family="Times New Roman,serif" font-size="14.00">Request Payload</text>
</g>
<!-- jdbc -->
<g id="node4" class="node">
<title>jdbc</title>
<path fill="none" stroke="black" d="M983.5,-66C983.5,-66 783.75,-66 783.75,-66 777.75,-66 771.75,-60 771.75,-54 771.75,-54 771.75,-42 771.75,-42 771.75,-36 777.75,-30 783.75,-30 783.75,-30 983.5,-30 983.5,-30 989.5,-30 995.5,-36 995.5,-42 995.5,-42 995.5,-54 995.5,-54 995.5,-60 989.5,-66 983.5,-66"/>
<text xml:space="preserve" text-anchor="middle" x="883.62" y="-42.95" font-family="Times New Roman,serif" font-size="14.00">JDBC Query to Experian Data Source</text>
</g>
<!-- parser&#45;&gt;jdbc -->
<g id="edge3" class="edge">
<title>parser&#45;&gt;jdbc</title>
<path fill="none" stroke="black" d="M646.83,-48C680.35,-48 721.6,-48 760.18,-48"/>
<polygon fill="black" stroke="black" points="760.01,-51.5 770.01,-48 760.01,-44.5 760.01,-51.5"/>
<text xml:space="preserve" text-anchor="middle" x="709.12" y="-51.2" font-family="Times New Roman,serif" font-size="14.00">Applicant Info</text>
</g>
<!-- transform -->
<g id="node5" class="node">
<title>transform</title>
<path fill="none" stroke="black" d="M1327.25,-66C1327.25,-66 1169.5,-66 1169.5,-66 1163.5,-66 1157.5,-60 1157.5,-54 1157.5,-54 1157.5,-42 1157.5,-42 1157.5,-36 1163.5,-30 1169.5,-30 1169.5,-30 1327.25,-30 1327.25,-30 1333.25,-30 1339.25,-36 1339.25,-42 1339.25,-42 1339.25,-54 1339.25,-54 1339.25,-60 1333.25,-66 1327.25,-66"/>
<text xml:space="preserve" text-anchor="middle" x="1248.38" y="-42.95" font-family="Times New Roman,serif" font-size="14.00">Transform Raw Data to JSON</text>
</g>
<!-- jdbc&#45;&gt;transform -->
<g id="edge4" class="edge">
<title>jdbc&#45;&gt;transform</title>
<path fill="none" stroke="black" d="M995.93,-48C1043.74,-48 1099.23,-48 1145.9,-48"/>
<polygon fill="black" stroke="black" points="1145.74,-51.5 1155.74,-48 1145.74,-44.5 1145.74,-51.5"/>
<text xml:space="preserve" text-anchor="middle" x="1076.5" y="-51.2" font-family="Times New Roman,serif" font-size="14.00">Raw Credit Score Data</text>
</g>
<!-- response -->
<g id="node6" class="node">
<title>response</title>
<path fill="none" stroke="black" d="M1635.75,-36C1635.75,-36 1515.5,-36 1515.5,-36 1509.5,-36 1503.5,-30 1503.5,-24 1503.5,-24 1503.5,-12 1503.5,-12 1503.5,-6 1509.5,0 1515.5,0 1515.5,0 1635.75,0 1635.75,0 1641.75,0 1647.75,-6 1647.75,-12 1647.75,-12 1647.75,-24 1647.75,-24 1647.75,-30 1641.75,-36 1635.75,-36"/>
<text xml:space="preserve" text-anchor="middle" x="1575.62" y="-12.95" font-family="Times New Roman,serif" font-size="14.00">Return JSON Response</text>
</g>
<!-- transform&#45;&gt;response -->
<g id="edge5" class="edge">
<title>transform&#45;&gt;response</title>
<path fill="none" stroke="black" d="M1339.54,-39.68C1387.22,-35.29 1445.34,-29.93 1491.86,-25.63"/>
<polygon fill="black" stroke="black" points="1491.97,-29.14 1501.61,-24.73 1491.33,-22.17 1491.97,-29.14"/>
<text xml:space="preserve" text-anchor="middle" x="1421.38" y="-40.64" font-family="Times New Roman,serif" font-size="14.00">Structured Credit Score</text>
</g>
<!-- response&#45;&gt;client -->
<g id="edge6" class="edge">
<title>response&#45;&gt;client</title>
<path fill="none" stroke="black" d="M1503.29,-12.47C1437.43,-7.85 1336.86,-2 1249.38,-2 316.62,-2 316.62,-2 316.62,-2 243.47,-2 159.31,-7.97 104.89,-12.62"/>
<polygon fill="black" stroke="black" points="104.91,-9.1 95.25,-13.45 105.52,-16.08 104.91,-9.1"/>
<text xml:space="preserve" text-anchor="middle" x="709.12" y="-5.2" font-family="Times New Roman,serif" font-size="14.00">HTTP Response</text>
</g>
</g>
</svg>
