<?xml version="1.0" encoding="UTF-8" standalone="no"?>
<!DOCTYPE svg PUBLIC "-//W3C//DTD SVG 1.1//EN"
 "http://www.w3.org/Graphics/SVG/1.1/DTD/svg11.dtd">
<!-- Generated by graphviz version 13.1.2 (20250808.2320)
 -->
<!-- Title: G Pages: 1 -->
<svg width="573pt" height="206pt"
 viewBox="0.00 0.00 573.00 206.00" xmlns="http://www.w3.org/2000/svg" xmlns:xlink="http://www.w3.org/1999/xlink">
<g id="graph0" class="graph" transform="scale(1 1) rotate(0) translate(4 202)">
<title>G</title>
<polygon fill="white" stroke="none" points="-4,4 -4,-202 568.5,-202 568.5,4 -4,4"/>
<!-- experian -->
<g id="node1" class="node">
<title>experian</title>
<path fill="none" stroke="black" d="M134.5,-117C134.5,-117 12,-117 12,-117 6,-117 0,-111 0,-105 0,-105 0,-93 0,-93 0,-87 6,-81 12,-81 12,-81 134.5,-81 134.5,-81 140.5,-81 146.5,-87 146.5,-93 146.5,-93 146.5,-105 146.5,-105 146.5,-111 140.5,-117 134.5,-117"/>
<text xml:space="preserve" text-anchor="middle" x="73.25" y="-93.95" font-family="Times New Roman,serif" font-size="14.00">Experian Demo Service</text>
</g>
<!-- creditcheck -->
<g id="node2" class="node">
<title>creditcheck</title>
<path fill="none" stroke="black" d="M521.38,-198C521.38,-198 366.62,-198 366.62,-198 360.62,-198 354.62,-192 354.62,-186 354.62,-186 354.62,-174 354.62,-174 354.62,-168 360.62,-162 366.62,-162 366.62,-162 521.38,-162 521.38,-162 527.38,-162 533.38,-168 533.38,-174 533.38,-174 533.38,-186 533.38,-186 533.38,-192 527.38,-198 521.38,-198"/>
<text xml:space="preserve" text-anchor="middle" x="444" y="-174.95" font-family="Times New Roman,serif" font-size="14.00">creditcheck Backend Services</text>
</g>
<!-- experian&#45;&gt;creditcheck -->
<g id="edge3" class="edge">
<title>experian&#45;&gt;creditcheck</title>
<path fill="none" stroke="black" d="M113.53,-117.43C129.12,-124.12 147.38,-131.21 164.5,-136 222.7,-152.29 289.54,-163.1 343.15,-169.93"/>
<polygon fill="black" stroke="black" points="342.53,-173.38 352.88,-171.14 343.39,-166.43 342.53,-173.38"/>
<text xml:space="preserve" text-anchor="middle" x="235" y="-167.14" font-family="Times New Roman,serif" font-size="14.00">Orchestration</text>
</g>
<!-- creditapp -->
<g id="node3" class="node">
<title>creditapp</title>
<path fill="none" stroke="black" d="M552.5,-144C552.5,-144 335.5,-144 335.5,-144 329.5,-144 323.5,-138 323.5,-132 323.5,-132 323.5,-120 323.5,-120 323.5,-114 329.5,-108 335.5,-108 335.5,-108 552.5,-108 552.5,-108 558.5,-108 564.5,-114 564.5,-120 564.5,-120 564.5,-132 564.5,-132 564.5,-138 558.5,-144 552.5,-144"/>
<text xml:space="preserve" text-anchor="middle" x="444" y="-120.95" font-family="Times New Roman,serif" font-size="14.00">creditapp Modules (Equifax &amp; Experian)</text>
</g>
<!-- experian&#45;&gt;creditapp -->
<g id="edge4" class="edge">
<title>experian&#45;&gt;creditapp</title>
<path fill="none" stroke="black" d="M146.66,-104.3C193.66,-107.74 256.28,-112.33 311.84,-116.4"/>
<polygon fill="black" stroke="black" points="311.48,-119.88 321.71,-117.12 311.99,-112.9 311.48,-119.88"/>
<text xml:space="preserve" text-anchor="middle" x="235" y="-118.91" font-family="Times New Roman,serif" font-size="14.00">Part of Credit Workflow</text>
</g>
<!-- logging -->
<g id="node4" class="node">
<title>logging</title>
<path fill="none" stroke="black" d="M479.75,-90C479.75,-90 408.25,-90 408.25,-90 402.25,-90 396.25,-84 396.25,-78 396.25,-78 396.25,-66 396.25,-66 396.25,-60 402.25,-54 408.25,-54 408.25,-54 479.75,-54 479.75,-54 485.75,-54 491.75,-60 491.75,-66 491.75,-66 491.75,-78 491.75,-78 491.75,-84 485.75,-90 479.75,-90"/>
<text xml:space="preserve" text-anchor="middle" x="444" y="-66.95" font-family="Times New Roman,serif" font-size="14.00">loggingservice</text>
</g>
<!-- experian&#45;&gt;logging -->
<g id="edge2" class="edge">
<title>experian&#45;&gt;logging</title>
<path fill="none" stroke="black" d="M146.61,-89.32C152.66,-88.65 158.68,-88.03 164.5,-87.5 240.52,-80.55 328.52,-76.28 384.92,-74.03"/>
<polygon fill="black" stroke="black" points="384.74,-77.54 394.6,-73.65 384.47,-70.54 384.74,-77.54"/>
<text xml:space="preserve" text-anchor="middle" x="235" y="-90.7" font-family="Times New Roman,serif" font-size="14.00">Error &amp; Transaction Logs</text>
</g>
<!-- datasource -->
<g id="node5" class="node">
<title>datasource</title>
<path fill="none" stroke="black" d="M499.62,-36C499.62,-36 388.38,-36 388.38,-36 382.38,-36 376.38,-30 376.38,-24 376.38,-24 376.38,-12 376.38,-12 376.38,-6 382.38,0 388.38,0 388.38,0 499.62,0 499.62,0 505.62,0 511.62,-6 511.62,-12 511.62,-12 511.62,-24 511.62,-24 511.62,-30 505.62,-36 499.62,-36"/>
<text xml:space="preserve" text-anchor="middle" x="444" y="-12.95" font-family="Times New Roman,serif" font-size="14.00">Experian Data Source</text>
</g>
<!-- experian&#45;&gt;datasource -->
<g id="edge1" class="edge">
<title>experian&#45;&gt;datasource</title>
<path fill="none" stroke="black" d="M108.06,-80.62C124.63,-72.35 145.14,-63.19 164.5,-57.5 230.47,-38.11 308.12,-28.1 364.64,-23.02"/>
<polygon fill="black" stroke="black" points="364.84,-26.51 374.51,-22.16 364.24,-19.54 364.84,-26.51"/>
<text xml:space="preserve" text-anchor="middle" x="235" y="-60.7" font-family="Times New Roman,serif" font-size="14.00">JDBC Query</text>
</g>
</g>
</svg>
