<?xml version="1.0" encoding="UTF-8" standalone="no"?>
<!DOCTYPE svg PUBLIC "-//W3C//DTD SVG 1.1//EN"
 "http://www.w3.org/Graphics/SVG/1.1/DTD/svg11.dtd">
<!-- Generated by graphviz version 13.1.2 (20250808.2320)
 -->
<!-- Title: G Pages: 1 -->
<svg width="650pt" height="152pt"
 viewBox="0.00 0.00 650.00 152.00" xmlns="http://www.w3.org/2000/svg" xmlns:xlink="http://www.w3.org/1999/xlink">
<g id="graph0" class="graph" transform="scale(1 1) rotate(0) translate(4 148)">
<title>G</title>
<polygon fill="white" stroke="none" points="-4,4 -4,-148 646,-148 646,4 -4,4"/>
<!-- LoggingService -->
<g id="node1" class="node">
<title>LoggingService</title>
<path fill="none" stroke="black" d="M389.75,-90C389.75,-90 307.75,-90 307.75,-90 301.75,-90 295.75,-84 295.75,-78 295.75,-78 295.75,-66 295.75,-66 295.75,-60 301.75,-54 307.75,-54 307.75,-54 389.75,-54 389.75,-54 395.75,-54 401.75,-60 401.75,-66 401.75,-66 401.75,-78 401.75,-78 401.75,-84 395.75,-90 389.75,-90"/>
<text xml:space="preserve" text-anchor="middle" x="348.75" y="-66.95" font-family="Times New Roman,serif" font-size="14.00">Logging Service</text>
</g>
<!-- FileSystem -->
<g id="node2" class="node">
<title>FileSystem</title>
<path fill="none" stroke="black" d="M617.25,-144C617.25,-144 560,-144 560,-144 554,-144 548,-138 548,-132 548,-132 548,-120 548,-120 548,-114 554,-108 560,-108 560,-108 617.25,-108 617.25,-108 623.25,-108 629.25,-114 629.25,-120 629.25,-120 629.25,-132 629.25,-132 629.25,-138 623.25,-144 617.25,-144"/>
<text xml:space="preserve" text-anchor="middle" x="588.62" y="-120.95" font-family="Times New Roman,serif" font-size="14.00">File System</text>
</g>
<!-- LoggingService&#45;&gt;FileSystem -->
<g id="edge2" class="edge">
<title>LoggingService&#45;&gt;FileSystem</title>
<path fill="none" stroke="black" d="M401.96,-88.27C407.94,-89.95 413.96,-91.57 419.75,-93 458.57,-102.61 502.98,-111.24 536.38,-117.26"/>
<polygon fill="black" stroke="black" points="535.75,-120.71 546.21,-119.02 536.98,-113.82 535.75,-120.71"/>
<text xml:space="preserve" text-anchor="middle" x="468.5" y="-116.52" font-family="Times New Roman,serif" font-size="14.00">Store logs</text>
</g>
<!-- Console -->
<g id="node3" class="node">
<title>Console</title>
<path fill="none" stroke="black" d="M606.75,-90C606.75,-90 570.5,-90 570.5,-90 564.5,-90 558.5,-84 558.5,-78 558.5,-78 558.5,-66 558.5,-66 558.5,-60 564.5,-54 570.5,-54 570.5,-54 606.75,-54 606.75,-54 612.75,-54 618.75,-60 618.75,-66 618.75,-66 618.75,-78 618.75,-78 618.75,-84 612.75,-90 606.75,-90"/>
<text xml:space="preserve" text-anchor="middle" x="588.62" y="-66.95" font-family="Times New Roman,serif" font-size="14.00">Console</text>
</g>
<!-- LoggingService&#45;&gt;Console -->
<g id="edge3" class="edge">
<title>LoggingService&#45;&gt;Console</title>
<path fill="none" stroke="black" d="M402.25,-72C445.74,-72 506.68,-72 546.64,-72"/>
<polygon fill="black" stroke="black" points="546.56,-75.5 556.56,-72 546.56,-68.5 546.56,-75.5"/>
<text xml:space="preserve" text-anchor="middle" x="468.5" y="-75.2" font-family="Times New Roman,serif" font-size="14.00">Immediate output</text>
</g>
<!-- XML -->
<g id="node4" class="node">
<title>XML</title>
<path fill="none" stroke="black" d="M630,-36C630,-36 547.25,-36 547.25,-36 541.25,-36 535.25,-30 535.25,-24 535.25,-24 535.25,-12 535.25,-12 535.25,-6 541.25,0 547.25,0 547.25,0 630,0 630,0 636,0 642,-6 642,-12 642,-12 642,-24 642,-24 642,-30 636,-36 630,-36"/>
<text xml:space="preserve" text-anchor="middle" x="588.62" y="-12.95" font-family="Times New Roman,serif" font-size="14.00">XML Rendering</text>
</g>
<!-- LoggingService&#45;&gt;XML -->
<g id="edge4" class="edge">
<title>LoggingService&#45;&gt;XML</title>
<path fill="none" stroke="black" d="M401.98,-56.16C407.95,-54.51 413.97,-52.92 419.75,-51.5 453.81,-43.13 492.14,-35.36 523.57,-29.41"/>
<polygon fill="black" stroke="black" points="524.14,-32.87 533.32,-27.59 522.85,-25.99 524.14,-32.87"/>
<text xml:space="preserve" text-anchor="middle" x="468.5" y="-54.7" font-family="Times New Roman,serif" font-size="14.00">Structured format</text>
</g>
<!-- Applications -->
<g id="node5" class="node">
<title>Applications</title>
<path fill="none" stroke="black" d="M166.75,-90C166.75,-90 12,-90 12,-90 6,-90 0,-84 0,-78 0,-78 0,-66 0,-66 0,-60 6,-54 12,-54 12,-54 166.75,-54 166.75,-54 172.75,-54 178.75,-60 178.75,-66 178.75,-66 178.75,-78 178.75,-78 178.75,-84 172.75,-90 166.75,-90"/>
<text xml:space="preserve" text-anchor="middle" x="89.38" y="-66.95" font-family="Times New Roman,serif" font-size="14.00">Applications (REST requests)</text>
</g>
<!-- Applications&#45;&gt;LoggingService -->
<g id="edge1" class="edge">
<title>Applications&#45;&gt;LoggingService</title>
<path fill="none" stroke="black" d="M178.95,-72C213.53,-72 252.4,-72 284.12,-72"/>
<polygon fill="black" stroke="black" points="283.94,-75.5 293.94,-72 283.94,-68.5 283.94,-75.5"/>
<text xml:space="preserve" text-anchor="middle" x="237.25" y="-75.2" font-family="Times New Roman,serif" font-size="14.00">REST requests</text>
</g>
</g>
</svg>
