<?xml version="1.0" encoding="UTF-8" standalone="no"?>
<!DOCTYPE svg PUBLIC "-//W3C//DTD SVG 1.1//EN"
 "http://www.w3.org/Graphics/SVG/1.1/DTD/svg11.dtd">
<!-- Generated by graphviz version 13.1.2 (20250808.2320)
 -->
<!-- Title: G Pages: 1 -->
<svg width="1162pt" height="208pt"
 viewBox="0.00 0.00 1162.00 208.00" xmlns="http://www.w3.org/2000/svg" xmlns:xlink="http://www.w3.org/1999/xlink">
<g id="graph0" class="graph" transform="scale(1 1) rotate(0) translate(4 204)">
<title>G</title>
<polygon fill="white" stroke="none" points="-4,4 -4,-204 1157.75,-204 1157.75,4 -4,4"/>
<!-- Applications -->
<g id="node1" class="node">
<title>Applications</title>
<path fill="none" stroke="black" d="M157.75,-42C157.75,-42 12,-42 12,-42 6,-42 0,-36 0,-30 0,-30 0,-18 0,-18 0,-12 6,-6 12,-6 12,-6 157.75,-6 157.75,-6 163.75,-6 169.75,-12 169.75,-18 169.75,-18 169.75,-30 169.75,-30 169.75,-36 163.75,-42 157.75,-42"/>
<text xml:space="preserve" text-anchor="middle" x="84.88" y="-18.95" font-family="Times New Roman,serif" font-size="14.00">Applications (REST clients)</text>
</g>
<!-- Endpoint -->
<g id="node2" class="node">
<title>Endpoint</title>
<path fill="none" stroke="black" d="M424.25,-85C424.25,-85 308.5,-85 308.5,-85 302.5,-85 296.5,-79 296.5,-73 296.5,-73 296.5,-61 296.5,-61 296.5,-55 302.5,-49 308.5,-49 308.5,-49 424.25,-49 424.25,-49 430.25,-49 436.25,-55 436.25,-61 436.25,-61 436.25,-73 436.25,-73 436.25,-79 430.25,-85 424.25,-85"/>
<text xml:space="preserve" text-anchor="middle" x="366.38" y="-61.95" font-family="Times New Roman,serif" font-size="14.00">REST Endpoint /result</text>
</g>
<!-- Applications&#45;&gt;Endpoint -->
<g id="edge1" class="edge">
<title>Applications&#45;&gt;Endpoint</title>
<path fill="none" stroke="black" d="M170.11,-36.96C206.68,-42.58 249.29,-49.14 285.36,-54.69"/>
<polygon fill="black" stroke="black" points="284.42,-58.09 294.84,-56.15 285.49,-51.17 284.42,-58.09"/>
<text xml:space="preserve" text-anchor="middle" x="233.12" y="-56.29" font-family="Times New Roman,serif" font-size="14.00">Send log request</text>
</g>
<!-- Processor -->
<g id="node3" class="node">
<title>Processor</title>
<path fill="none" stroke="black" d="M725.25,-99C725.25,-99 587,-99 587,-99 581,-99 575,-93 575,-87 575,-87 575,-75 575,-75 575,-69 581,-63 587,-63 587,-63 725.25,-63 725.25,-63 731.25,-63 737.25,-69 737.25,-75 737.25,-75 737.25,-87 737.25,-87 737.25,-93 731.25,-99 725.25,-99"/>
<text xml:space="preserve" text-anchor="middle" x="656.12" y="-75.95" font-family="Times New Roman,serif" font-size="14.00">Logging Service Processor</text>
</g>
<!-- Endpoint&#45;&gt;Processor -->
<g id="edge2" class="edge">
<title>Endpoint&#45;&gt;Processor</title>
<path fill="none" stroke="black" d="M436.66,-70.37C474.67,-72.22 522.26,-74.54 563.32,-76.53"/>
<polygon fill="black" stroke="black" points="563.04,-80.02 573.2,-77.01 563.39,-73.03 563.04,-80.02"/>
<text xml:space="preserve" text-anchor="middle" x="505.62" y="-79.27" font-family="Times New Roman,serif" font-size="14.00">Accept log params</text>
</g>
<!-- LogFile -->
<g id="node4" class="node">
<title>LogFile</title>
<path fill="none" stroke="black" d="M1055.88,-200C1055.88,-200 1012.12,-200 1012.12,-200 1006.12,-200 1000.12,-194 1000.12,-188 1000.12,-188 1000.12,-176 1000.12,-176 1000.12,-170 1006.12,-164 1012.12,-164 1012.12,-164 1055.88,-164 1055.88,-164 1061.88,-164 1067.88,-170 1067.88,-176 1067.88,-176 1067.88,-188 1067.88,-188 1067.88,-194 1061.88,-200 1055.88,-200"/>
<text xml:space="preserve" text-anchor="middle" x="1034" y="-176.95" font-family="Times New Roman,serif" font-size="14.00">Log Files</text>
</g>
<!-- Processor&#45;&gt;LogFile -->
<g id="edge3" class="edge">
<title>Processor&#45;&gt;LogFile</title>
<path fill="none" stroke="black" d="M683.36,-99.44C702.44,-111.96 729.36,-127.85 755.25,-137 834.59,-165.03 932.9,-175.71 988.74,-179.7"/>
<polygon fill="black" stroke="black" points="988.27,-183.18 998.48,-180.35 988.74,-176.19 988.27,-183.18"/>
<text xml:space="preserve" text-anchor="middle" x="825.75" y="-171.93" font-family="Times New Roman,serif" font-size="14.00">Write structured log</text>
</g>
<!-- Console -->
<g id="node5" class="node">
<title>Console</title>
<path fill="none" stroke="black" d="M1072.75,-146C1072.75,-146 995.25,-146 995.25,-146 989.25,-146 983.25,-140 983.25,-134 983.25,-134 983.25,-122 983.25,-122 983.25,-116 989.25,-110 995.25,-110 995.25,-110 1072.75,-110 1072.75,-110 1078.75,-110 1084.75,-116 1084.75,-122 1084.75,-122 1084.75,-134 1084.75,-134 1084.75,-140 1078.75,-146 1072.75,-146"/>
<text xml:space="preserve" text-anchor="middle" x="1034" y="-122.95" font-family="Times New Roman,serif" font-size="14.00">Console Output</text>
</g>
<!-- Processor&#45;&gt;Console -->
<g id="edge4" class="edge">
<title>Processor&#45;&gt;Console</title>
<path fill="none" stroke="black" d="M737.62,-97.19C743.57,-98.21 749.5,-99.16 755.25,-100 829.38,-110.89 915.27,-118.84 971.68,-123.43"/>
<polygon fill="black" stroke="black" points="971.15,-126.9 981.4,-124.21 971.71,-119.92 971.15,-126.9"/>
<text xml:space="preserve" text-anchor="middle" x="825.75" y="-119.45" font-family="Times New Roman,serif" font-size="14.00">Optional trace output</text>
</g>
<!-- FileOps -->
<g id="node6" class="node">
<title>FileOps</title>
<path fill="none" stroke="black" d="M1141.75,-92C1141.75,-92 926.25,-92 926.25,-92 920.25,-92 914.25,-86 914.25,-80 914.25,-80 914.25,-68 914.25,-68 914.25,-62 920.25,-56 926.25,-56 926.25,-56 1141.75,-56 1141.75,-56 1147.75,-56 1153.75,-62 1153.75,-68 1153.75,-68 1153.75,-80 1153.75,-80 1153.75,-86 1147.75,-92 1141.75,-92"/>
<text xml:space="preserve" text-anchor="middle" x="1034" y="-68.95" font-family="Times New Roman,serif" font-size="14.00">File Operations (list/copy/rename/delete)</text>
</g>
<!-- Processor&#45;&gt;FileOps -->
<g id="edge5" class="edge">
<title>Processor&#45;&gt;FileOps</title>
<path fill="none" stroke="black" d="M737.3,-79.51C785.41,-78.61 847.74,-77.45 902.77,-76.43"/>
<polygon fill="black" stroke="black" points="902.59,-79.93 912.52,-76.24 902.46,-72.93 902.59,-79.93"/>
<text xml:space="preserve" text-anchor="middle" x="825.75" y="-82.32" font-family="Times New Roman,serif" font-size="14.00">Execute file ops</text>
</g>
<!-- Response -->
<g id="node7" class="node">
<title>Response</title>
<path fill="none" stroke="black" d="M1085.88,-36C1085.88,-36 982.12,-36 982.12,-36 976.12,-36 970.12,-30 970.12,-24 970.12,-24 970.12,-12 970.12,-12 970.12,-6 976.12,0 982.12,0 982.12,0 1085.88,0 1085.88,0 1091.88,0 1097.88,-6 1097.88,-12 1097.88,-12 1097.88,-24 1097.88,-24 1097.88,-30 1091.88,-36 1085.88,-36"/>
<text xml:space="preserve" text-anchor="middle" x="1034" y="-12.95" font-family="Times New Roman,serif" font-size="14.00">Structured Response</text>
</g>
<!-- Processor&#45;&gt;Response -->
<g id="edge6" class="edge">
<title>Processor&#45;&gt;Response</title>
<path fill="none" stroke="black" d="M727.14,-62.55C736.55,-60.35 746.11,-58.27 755.25,-56.5 823.66,-43.26 902.4,-32.79 958.54,-26.13"/>
<polygon fill="black" stroke="black" points="958.78,-29.63 968.3,-24.98 957.96,-22.67 958.78,-29.63"/>
<text xml:space="preserve" text-anchor="middle" x="825.75" y="-59.7" font-family="Times New Roman,serif" font-size="14.00">Return confirmation/error</text>
</g>
<!-- Response&#45;&gt;Applications -->
<g id="edge7" class="edge">
<title>Response&#45;&gt;Applications</title>
<path fill="none" stroke="black" d="M969.65,-18.4C807.05,-19.43 374.25,-22.17 181.18,-23.4"/>
<polygon fill="black" stroke="black" points="181.42,-19.89 171.44,-23.46 181.46,-26.89 181.42,-19.89"/>
<text xml:space="preserve" text-anchor="middle" x="505.62" y="-24.82" font-family="Times New Roman,serif" font-size="14.00">Response back</text>
</g>
</g>
</svg>
