<?xml version="1.0" encoding="UTF-8" standalone="no"?>
<!DOCTYPE svg PUBLIC "-//W3C//DTD SVG 1.1//EN"
 "http://www.w3.org/Graphics/SVG/1.1/DTD/svg11.dtd">
<!-- Generated by graphviz version 13.1.2 (20250808.2320)
 -->
<!-- Title: G Pages: 1 -->
<svg width="509pt" height="152pt"
 viewBox="0.00 0.00 509.00 152.00" xmlns="http://www.w3.org/2000/svg" xmlns:xlink="http://www.w3.org/1999/xlink">
<g id="graph0" class="graph" transform="scale(1 1) rotate(0) translate(4 148)">
<title>G</title>
<polygon fill="white" stroke="none" points="-4,4 -4,-148 505.25,-148 505.25,4 -4,4"/>
<!-- Process -->
<g id="node1" class="node">
<title>Process</title>
<path fill="none" stroke="black" d="M101.5,-117C101.5,-117 12,-117 12,-117 6,-117 0,-111 0,-105 0,-105 0,-93 0,-93 0,-87 6,-81 12,-81 12,-81 101.5,-81 101.5,-81 107.5,-81 113.5,-87 113.5,-93 113.5,-93 113.5,-105 113.5,-105 113.5,-111 107.5,-117 101.5,-117"/>
<text xml:space="preserve" text-anchor="middle" x="56.75" y="-93.95" font-family="Times New Roman,serif" font-size="14.00">Process (/movies)</text>
</g>
<!-- SearchMovies -->
<g id="node2" class="node">
<title>SearchMovies</title>
<path fill="none" stroke="black" d="M231.5,-117C231.5,-117 161.5,-117 161.5,-117 155.5,-117 149.5,-111 149.5,-105 149.5,-105 149.5,-93 149.5,-93 149.5,-87 155.5,-81 161.5,-81 161.5,-81 231.5,-81 231.5,-81 237.5,-81 243.5,-87 243.5,-93 243.5,-93 243.5,-105 243.5,-105 243.5,-111 237.5,-117 231.5,-117"/>
<text xml:space="preserve" text-anchor="middle" x="196.5" y="-93.95" font-family="Times New Roman,serif" font-size="14.00">SearchMovies</text>
</g>
<!-- Process&#45;&gt;SearchMovies -->
<g id="edge1" class="edge">
<title>Process&#45;&gt;SearchMovies</title>
<path fill="none" stroke="black" d="M113.78,-99C121.69,-99 129.83,-99 137.77,-99"/>
<polygon fill="black" stroke="black" points="137.69,-102.5 147.69,-99 137.69,-95.5 137.69,-102.5"/>
</g>
<!-- GetRatings -->
<g id="node3" class="node">
<title>GetRatings</title>
<path fill="none" stroke="black" d="M344.25,-92C344.25,-92 291.5,-92 291.5,-92 285.5,-92 279.5,-86 279.5,-80 279.5,-80 279.5,-68 279.5,-68 279.5,-62 285.5,-56 291.5,-56 291.5,-56 344.25,-56 344.25,-56 350.25,-56 356.25,-62 356.25,-68 356.25,-68 356.25,-80 356.25,-80 356.25,-86 350.25,-92 344.25,-92"/>
<text xml:space="preserve" text-anchor="middle" x="317.88" y="-68.95" font-family="Times New Roman,serif" font-size="14.00">GetRatings</text>
</g>
<!-- SearchMovies&#45;&gt;GetRatings -->
<g id="edge3" class="edge">
<title>SearchMovies&#45;&gt;GetRatings</title>
<path fill="none" stroke="black" d="M244,-89.26C251.92,-87.6 260.16,-85.88 268.14,-84.21"/>
<polygon fill="black" stroke="black" points="268.62,-87.68 277.69,-82.21 267.19,-80.83 268.62,-87.68"/>
</g>
<!-- SortMovies -->
<g id="node4" class="node">
<title>SortMovies</title>
<path fill="none" stroke="black" d="M474.62,-144C474.62,-144 418.88,-144 418.88,-144 412.88,-144 406.88,-138 406.88,-132 406.88,-132 406.88,-120 406.88,-120 406.88,-114 412.88,-108 418.88,-108 418.88,-108 474.62,-108 474.62,-108 480.62,-108 486.62,-114 486.62,-120 486.62,-120 486.62,-132 486.62,-132 486.62,-138 480.62,-144 474.62,-144"/>
<text xml:space="preserve" text-anchor="middle" x="446.75" y="-120.95" font-family="Times New Roman,serif" font-size="14.00">SortMovies</text>
</g>
<!-- SearchMovies&#45;&gt;SortMovies -->
<g id="edge2" class="edge">
<title>SearchMovies&#45;&gt;SortMovies</title>
<path fill="none" stroke="black" d="M243.9,-104.05C286.93,-108.73 350.81,-115.67 395.13,-120.49"/>
<polygon fill="black" stroke="black" points="394.7,-123.97 405.02,-121.57 395.45,-117.01 394.7,-123.97"/>
</g>
<!-- GetRatings&#45;&gt;SortMovies -->
<g id="edge4" class="edge">
<title>GetRatings&#45;&gt;SortMovies</title>
<path fill="none" stroke="black" d="M356.6,-89.46C369.05,-94.56 383.09,-100.32 396.28,-105.72"/>
<polygon fill="black" stroke="black" points="394.65,-108.84 405.23,-109.39 397.31,-102.36 394.65,-108.84"/>
</g>
<!-- SortMovieSingle -->
<g id="node5" class="node">
<title>SortMovieSingle</title>
<path fill="none" stroke="black" d="M489.25,-90C489.25,-90 404.25,-90 404.25,-90 398.25,-90 392.25,-84 392.25,-78 392.25,-78 392.25,-66 392.25,-66 392.25,-60 398.25,-54 404.25,-54 404.25,-54 489.25,-54 489.25,-54 495.25,-54 501.25,-60 501.25,-66 501.25,-66 501.25,-78 501.25,-78 501.25,-84 495.25,-90 489.25,-90"/>
<text xml:space="preserve" text-anchor="middle" x="446.75" y="-66.95" font-family="Times New Roman,serif" font-size="14.00">SortMovieSingle</text>
</g>
<!-- GetRatings&#45;&gt;SortMovieSingle -->
<g id="edge5" class="edge">
<title>GetRatings&#45;&gt;SortMovieSingle</title>
<path fill="none" stroke="black" d="M356.6,-73.41C364.23,-73.29 372.46,-73.16 380.73,-73.02"/>
<polygon fill="black" stroke="black" points="380.52,-76.53 390.46,-72.87 380.41,-69.53 380.52,-76.53"/>
</g>
<!-- SortSingleMovie -->
<g id="node6" class="node">
<title>SortSingleMovie</title>
<path fill="none" stroke="black" d="M489.25,-36C489.25,-36 404.25,-36 404.25,-36 398.25,-36 392.25,-30 392.25,-24 392.25,-24 392.25,-12 392.25,-12 392.25,-6 398.25,0 404.25,0 404.25,0 489.25,0 489.25,0 495.25,0 501.25,-6 501.25,-12 501.25,-12 501.25,-24 501.25,-24 501.25,-30 495.25,-36 489.25,-36"/>
<text xml:space="preserve" text-anchor="middle" x="446.75" y="-12.95" font-family="Times New Roman,serif" font-size="14.00">SortSingleMovie</text>
</g>
<!-- GetRatings&#45;&gt;SortSingleMovie -->
<g id="edge6" class="edge">
<title>GetRatings&#45;&gt;SortSingleMovie</title>
<path fill="none" stroke="black" d="M356.6,-57.35C368.24,-52.21 381.27,-46.46 393.7,-40.97"/>
<polygon fill="black" stroke="black" points="394.84,-44.3 402.57,-37.06 392.01,-37.89 394.84,-44.3"/>
</g>
</g>
</svg>
