<?xml version="1.0" encoding="UTF-8" standalone="no"?>
<!DOCTYPE svg PUBLIC "-//W3C//DTD SVG 1.1//EN"
 "http://www.w3.org/Graphics/SVG/1.1/DTD/svg11.dtd">
<!-- Generated by graphviz version 13.1.2 (20250808.2320)
 -->
<!-- Title: G Pages: 1 -->
<svg width="982pt" height="122pt"
 viewBox="0.00 0.00 982.00 122.00" xmlns="http://www.w3.org/2000/svg" xmlns:xlink="http://www.w3.org/1999/xlink">
<g id="graph0" class="graph" transform="scale(1 1) rotate(0) translate(4 118.24)">
<title>G</title>
<polygon fill="white" stroke="none" points="-4,4 -4,-118.24 977.75,-118.24 977.75,4 -4,4"/>
<!-- User -->
<g id="node1" class="node">
<title>User</title>
<path fill="none" stroke="black" d="M73.75,-36C73.75,-36 12,-36 12,-36 6,-36 0,-30 0,-24 0,-24 0,-12 0,-12 0,-6 6,0 12,0 12,0 73.75,0 73.75,0 79.75,0 85.75,-6 85.75,-12 85.75,-12 85.75,-24 85.75,-24 85.75,-30 79.75,-36 73.75,-36"/>
<text xml:space="preserve" text-anchor="middle" x="42.88" y="-12.95" font-family="Times New Roman,serif" font-size="14.00">User / Client</text>
</g>
<!-- Endpoint -->
<g id="node2" class="node">
<title>Endpoint</title>
<path fill="none" stroke="black" d="M380.75,-86.5C380.75,-86.5 220.75,-86.5 220.75,-86.5 214.75,-86.5 208.75,-80.5 208.75,-74.5 208.75,-74.5 208.75,-57.5 208.75,-57.5 208.75,-51.5 214.75,-45.5 220.75,-45.5 220.75,-45.5 380.75,-45.5 380.75,-45.5 386.75,-45.5 392.75,-51.5 392.75,-57.5 392.75,-57.5 392.75,-74.5 392.75,-74.5 392.75,-80.5 386.75,-86.5 380.75,-86.5"/>
<text xml:space="preserve" text-anchor="middle" x="300.75" y="-69.2" font-family="Times New Roman,serif" font-size="14.00">/movies Endpoint</text>
<text xml:space="preserve" text-anchor="middle" x="300.75" y="-52.7" font-family="Times New Roman,serif" font-size="14.00">(moviesearch.module.Process)</text>
</g>
<!-- User&#45;&gt;Endpoint -->
<g id="edge1" class="edge">
<title>User&#45;&gt;Endpoint</title>
<path fill="none" stroke="black" d="M86.13,-25.93C116.42,-31.61 158.58,-39.52 197.45,-46.81"/>
<polygon fill="black" stroke="black" points="196.35,-50.16 206.83,-48.57 197.64,-43.28 196.35,-50.16"/>
<text xml:space="preserve" text-anchor="middle" x="147.25" y="-64.57" font-family="Times New Roman,serif" font-size="14.00">Search Request</text>
<text xml:space="preserve" text-anchor="middle" x="147.25" y="-48.07" font-family="Times New Roman,serif" font-size="14.00">(title, year, etc.)</text>
</g>
<!-- SearchOmdb -->
<g id="node3" class="node">
<title>SearchOmdb</title>
<path fill="none" stroke="black" d="M752.25,-105C752.25,-105 571.25,-105 571.25,-105 565.25,-105 559.25,-99 559.25,-93 559.25,-93 559.25,-81 559.25,-81 559.25,-75 565.25,-69 571.25,-69 571.25,-69 752.25,-69 752.25,-69 758.25,-69 764.25,-75 764.25,-81 764.25,-81 764.25,-93 764.25,-93 764.25,-99 758.25,-105 752.25,-105"/>
<text xml:space="preserve" text-anchor="middle" x="661.75" y="-81.95" font-family="Times New Roman,serif" font-size="14.00">moviesearch.module.SearchOmdb</text>
</g>
<!-- Endpoint&#45;&gt;SearchOmdb -->
<g id="edge2" class="edge">
<title>Endpoint&#45;&gt;SearchOmdb</title>
<path fill="none" stroke="black" d="M376.06,-86.95C387.59,-89.46 399.43,-91.62 410.75,-93 455.26,-98.43 504.54,-98.5 547.5,-96.66"/>
<polygon fill="black" stroke="black" points="547.52,-100.16 557.35,-96.19 547.19,-93.17 547.52,-100.16"/>
<text xml:space="preserve" text-anchor="middle" x="476" y="-100.94" font-family="Times New Roman,serif" font-size="14.00">Forward Search Params</text>
</g>
<!-- Response -->
<g id="node5" class="node">
<title>Response</title>
<path fill="none" stroke="black" d="M720.38,-42.5C720.38,-42.5 603.12,-42.5 603.12,-42.5 597.12,-42.5 591.12,-36.5 591.12,-30.5 591.12,-30.5 591.12,-13.5 591.12,-13.5 591.12,-7.5 597.12,-1.5 603.12,-1.5 603.12,-1.5 720.38,-1.5 720.38,-1.5 726.38,-1.5 732.38,-7.5 732.38,-13.5 732.38,-13.5 732.38,-30.5 732.38,-30.5 732.38,-36.5 726.38,-42.5 720.38,-42.5"/>
<text xml:space="preserve" text-anchor="middle" x="661.75" y="-25.2" font-family="Times New Roman,serif" font-size="14.00">Structured Movie Data</text>
<text xml:space="preserve" text-anchor="middle" x="661.75" y="-8.7" font-family="Times New Roman,serif" font-size="14.00">(JSON/XML)</text>
</g>
<!-- Endpoint&#45;&gt;Response -->
<g id="edge6" class="edge">
<title>Endpoint&#45;&gt;Response</title>
<path fill="none" stroke="black" d="M392.96,-49.13C398.97,-48.19 404.94,-47.3 410.75,-46.5 466.96,-38.73 530.61,-32.53 579.62,-28.31"/>
<polygon fill="black" stroke="black" points="579.62,-31.82 589.29,-27.49 579.03,-24.85 579.62,-31.82"/>
<text xml:space="preserve" text-anchor="middle" x="476" y="-49.7" font-family="Times New Roman,serif" font-size="14.00">Return Response</text>
</g>
<!-- SearchOmdb&#45;&gt;Endpoint -->
<g id="edge5" class="edge">
<title>SearchOmdb&#45;&gt;Endpoint</title>
<path fill="none" stroke="black" d="M558.79,-73.98C552.86,-73.43 546.98,-72.92 541.25,-72.5 496.51,-69.19 446.95,-67.51 404.58,-66.68"/>
<polygon fill="black" stroke="black" points="404.69,-63.18 394.63,-66.5 404.57,-70.18 404.69,-63.18"/>
<text xml:space="preserve" text-anchor="middle" x="476" y="-75.7" font-family="Times New Roman,serif" font-size="14.00">Processed Results</text>
</g>
<!-- Omdb -->
<g id="node4" class="node">
<title>Omdb</title>
<path fill="none" stroke="black" d="M961.75,-107.5C961.75,-107.5 906,-107.5 906,-107.5 900,-107.5 894,-101.5 894,-95.5 894,-95.5 894,-78.5 894,-78.5 894,-72.5 900,-66.5 906,-66.5 906,-66.5 961.75,-66.5 961.75,-66.5 967.75,-66.5 973.75,-72.5 973.75,-78.5 973.75,-78.5 973.75,-95.5 973.75,-95.5 973.75,-101.5 967.75,-107.5 961.75,-107.5"/>
<text xml:space="preserve" text-anchor="middle" x="933.88" y="-90.2" font-family="Times New Roman,serif" font-size="14.00">OMDb API</text>
<text xml:space="preserve" text-anchor="middle" x="933.88" y="-73.7" font-family="Times New Roman,serif" font-size="14.00">(External)</text>
</g>
<!-- SearchOmdb&#45;&gt;Omdb -->
<g id="edge3" class="edge">
<title>SearchOmdb&#45;&gt;Omdb</title>
<path fill="none" stroke="black" d="M764.49,-87C804.76,-87 849.24,-87 882.37,-87"/>
<polygon fill="black" stroke="black" points="882.07,-90.5 892.07,-87 882.07,-83.5 882.07,-90.5"/>
<text xml:space="preserve" text-anchor="middle" x="829.12" y="-90.2" font-family="Times New Roman,serif" font-size="14.00">API Query</text>
</g>
<!-- Omdb&#45;&gt;SearchOmdb -->
<g id="edge4" class="edge">
<title>Omdb&#45;&gt;SearchOmdb</title>
<path fill="none" stroke="black" d="M893.58,-70.87C887.77,-69.06 881.79,-67.51 876,-66.5 837.73,-59.81 795.19,-62 758.24,-66.92"/>
<polygon fill="black" stroke="black" points="757.86,-63.44 748.46,-68.32 758.85,-70.37 757.86,-63.44"/>
<text xml:space="preserve" text-anchor="middle" x="829.12" y="-69.7" font-family="Times New Roman,serif" font-size="14.00">Raw Movie Data</text>
</g>
<!-- Response&#45;&gt;User -->
<g id="edge7" class="edge">
<title>Response&#45;&gt;User</title>
<path fill="none" stroke="black" d="M590.69,-21.55C466.04,-20.74 208.39,-19.07 97.05,-18.34"/>
<polygon fill="black" stroke="black" points="97.33,-14.85 87.3,-18.28 97.28,-21.85 97.33,-14.85"/>
<text xml:space="preserve" text-anchor="middle" x="300.75" y="-23.4" font-family="Times New Roman,serif" font-size="14.00">Movie Details</text>
</g>
</g>
</svg>
