<?xml version="1.0" encoding="UTF-8" standalone="no"?>
<!DOCTYPE svg PUBLIC "-//W3C//DTD SVG 1.1//EN"
 "http://www.w3.org/Graphics/SVG/1.1/DTD/svg11.dtd">
<!-- Generated by graphviz version 13.1.2 (20250808.2320)
 -->
<!-- Title: G Pages: 1 -->
<svg width="1351pt" height="182pt"
 viewBox="0.00 0.00 1351.00 182.00" xmlns="http://www.w3.org/2000/svg" xmlns:xlink="http://www.w3.org/1999/xlink">
<g id="graph0" class="graph" transform="scale(1 1) rotate(0) translate(4 178)">
<title>G</title>
<polygon fill="white" stroke="none" points="-4,4 -4,-178 1346.5,-178 1346.5,4 -4,4"/>
<!-- UserRequest -->
<g id="node1" class="node">
<title>UserRequest</title>
<path fill="none" stroke="black" d="M184.75,-36C184.75,-36 12,-36 12,-36 6,-36 0,-30 0,-24 0,-24 0,-12 0,-12 0,-6 6,0 12,0 12,0 184.75,0 184.75,0 190.75,0 196.75,-6 196.75,-12 196.75,-12 196.75,-24 196.75,-24 196.75,-30 190.75,-36 184.75,-36"/>
<text xml:space="preserve" text-anchor="middle" x="98.38" y="-12.95" font-family="Times New Roman,serif" font-size="14.00">User / System Request (/movies)</text>
</g>
<!-- Process -->
<g id="node2" class="node">
<title>Process</title>
<path fill="none" stroke="black" d="M440,-36C440,-36 320.5,-36 320.5,-36 314.5,-36 308.5,-30 308.5,-24 308.5,-24 308.5,-12 308.5,-12 308.5,-6 314.5,0 320.5,0 320.5,0 440,0 440,0 446,0 452,-6 452,-12 452,-12 452,-24 452,-24 452,-30 446,-36 440,-36"/>
<text xml:space="preserve" text-anchor="middle" x="380.25" y="-12.95" font-family="Times New Roman,serif" font-size="14.00">Process (Orchestration)</text>
</g>
<!-- UserRequest&#45;&gt;Process -->
<g id="edge1" class="edge">
<title>UserRequest&#45;&gt;Process</title>
<path fill="none" stroke="black" d="M196.87,-18C229.47,-18 265.46,-18 296.79,-18"/>
<polygon fill="black" stroke="black" points="296.6,-21.5 306.6,-18 296.6,-14.5 296.6,-21.5"/>
<text xml:space="preserve" text-anchor="middle" x="252.62" y="-21.2" font-family="Times New Roman,serif" font-size="14.00">REST request</text>
</g>
<!-- SearchMovies -->
<g id="node3" class="node">
<title>SearchMovies</title>
<path fill="none" stroke="black" d="M606.75,-106C606.75,-106 536.75,-106 536.75,-106 530.75,-106 524.75,-100 524.75,-94 524.75,-94 524.75,-82 524.75,-82 524.75,-76 530.75,-70 536.75,-70 536.75,-70 606.75,-70 606.75,-70 612.75,-70 618.75,-76 618.75,-82 618.75,-82 618.75,-94 618.75,-94 618.75,-100 612.75,-106 606.75,-106"/>
<text xml:space="preserve" text-anchor="middle" x="571.75" y="-82.95" font-family="Times New Roman,serif" font-size="14.00">SearchMovies</text>
</g>
<!-- Process&#45;&gt;SearchMovies -->
<g id="edge2" class="edge">
<title>Process&#45;&gt;SearchMovies</title>
<path fill="none" stroke="black" d="M431.04,-36.39C456.48,-45.79 487.56,-57.27 513.94,-67.01"/>
<polygon fill="black" stroke="black" points="512.53,-70.23 523.12,-70.41 514.96,-63.66 512.53,-70.23"/>
<text xml:space="preserve" text-anchor="middle" x="488.38" y="-66.56" font-family="Times New Roman,serif" font-size="14.00">invoke</text>
</g>
<!-- FinalResponse -->
<g id="node8" class="node">
<title>FinalResponse</title>
<path fill="none" stroke="black" d="M1330.5,-92C1330.5,-92 1195.25,-92 1195.25,-92 1189.25,-92 1183.25,-86 1183.25,-80 1183.25,-80 1183.25,-68 1183.25,-68 1183.25,-62 1189.25,-56 1195.25,-56 1195.25,-56 1330.5,-56 1330.5,-56 1336.5,-56 1342.5,-62 1342.5,-68 1342.5,-68 1342.5,-80 1342.5,-80 1342.5,-86 1336.5,-92 1330.5,-92"/>
<text xml:space="preserve" text-anchor="middle" x="1262.88" y="-68.95" font-family="Times New Roman,serif" font-size="14.00">Final Structured Response</text>
</g>
<!-- Process&#45;&gt;FinalResponse -->
<g id="edge7" class="edge">
<title>Process&#45;&gt;FinalResponse</title>
<path fill="none" stroke="black" d="M452.22,-9.16C487.75,-5.46 531.46,-2 570.75,-2 570.75,-2 570.75,-2 1040.5,-2 1104.53,-2 1174.1,-29.58 1217.82,-50.6"/>
<polygon fill="black" stroke="black" points="1216.22,-53.71 1226.74,-54.98 1219.3,-47.43 1216.22,-53.71"/>
<text xml:space="preserve" text-anchor="middle" x="802.62" y="-5.2" font-family="Times New Roman,serif" font-size="14.00">return</text>
</g>
<!-- GetRatings -->
<g id="node4" class="node">
<title>GetRatings</title>
<path fill="none" stroke="black" d="M829,-106C829,-106 776.25,-106 776.25,-106 770.25,-106 764.25,-100 764.25,-94 764.25,-94 764.25,-82 764.25,-82 764.25,-76 770.25,-70 776.25,-70 776.25,-70 829,-70 829,-70 835,-70 841,-76 841,-82 841,-82 841,-94 841,-94 841,-100 835,-106 829,-106"/>
<text xml:space="preserve" text-anchor="middle" x="802.62" y="-82.95" font-family="Times New Roman,serif" font-size="14.00">GetRatings</text>
</g>
<!-- SearchMovies&#45;&gt;GetRatings -->
<g id="edge3" class="edge">
<title>SearchMovies&#45;&gt;GetRatings</title>
<path fill="none" stroke="black" d="M619.07,-88C657.86,-88 713.07,-88 752.6,-88"/>
<polygon fill="black" stroke="black" points="752.56,-91.5 762.56,-88 752.56,-84.5 752.56,-91.5"/>
<text xml:space="preserve" text-anchor="middle" x="691.5" y="-91.2" font-family="Times New Roman,serif" font-size="14.00">optional enrichment</text>
</g>
<!-- SortMovies -->
<g id="node5" class="node">
<title>SortMovies</title>
<path fill="none" stroke="black" d="M1067.38,-174C1067.38,-174 1011.62,-174 1011.62,-174 1005.62,-174 999.62,-168 999.62,-162 999.62,-162 999.62,-150 999.62,-150 999.62,-144 1005.62,-138 1011.62,-138 1011.62,-138 1067.38,-138 1067.38,-138 1073.38,-138 1079.38,-144 1079.38,-150 1079.38,-150 1079.38,-162 1079.38,-162 1079.38,-168 1073.38,-174 1067.38,-174"/>
<text xml:space="preserve" text-anchor="middle" x="1039.5" y="-150.95" font-family="Times New Roman,serif" font-size="14.00">SortMovies</text>
</g>
<!-- SearchMovies&#45;&gt;SortMovies -->
<g id="edge4" class="edge">
<title>SearchMovies&#45;&gt;SortMovies</title>
<path fill="none" stroke="black" d="M619,-104.09C624.93,-105.89 630.96,-107.58 636.75,-109 733.99,-132.9 759.47,-134.98 859,-146 902.39,-150.81 951.95,-153.35 987.98,-154.66"/>
<polygon fill="black" stroke="black" points="987.55,-158.15 997.67,-154.99 987.79,-151.15 987.55,-158.15"/>
<text xml:space="preserve" text-anchor="middle" x="802.62" y="-147.11" font-family="Times New Roman,serif" font-size="14.00">list of movies</text>
</g>
<!-- GetRatings&#45;&gt;SortMovies -->
<g id="edge5" class="edge">
<title>GetRatings&#45;&gt;SortMovies</title>
<path fill="none" stroke="black" d="M841.3,-100.8C847.2,-102.65 853.24,-104.44 859,-106 906.42,-118.83 919.85,-115.71 967,-129.5 974.09,-131.57 981.48,-134 988.71,-136.53"/>
<polygon fill="black" stroke="black" points="987.48,-139.81 998.07,-139.9 989.85,-133.22 987.48,-139.81"/>
<text xml:space="preserve" text-anchor="middle" x="913" y="-132.7" font-family="Times New Roman,serif" font-size="14.00">movies with ratings</text>
</g>
<!-- SortMovieSingle -->
<g id="node6" class="node">
<title>SortMovieSingle</title>
<path fill="none" stroke="black" d="M1082,-66C1082,-66 997,-66 997,-66 991,-66 985,-60 985,-54 985,-54 985,-42 985,-42 985,-36 991,-30 997,-30 997,-30 1082,-30 1082,-30 1088,-30 1094,-36 1094,-42 1094,-42 1094,-54 1094,-54 1094,-60 1088,-66 1082,-66"/>
<text xml:space="preserve" text-anchor="middle" x="1039.5" y="-42.95" font-family="Times New Roman,serif" font-size="14.00">SortMovieSingle</text>
</g>
<!-- GetRatings&#45;&gt;SortMovieSingle -->
<g id="edge8" class="edge">
<title>GetRatings&#45;&gt;SortMovieSingle</title>
<path fill="none" stroke="black" d="M841.27,-71.03C847.12,-68.88 853.16,-66.94 859,-65.5 896.28,-56.31 939.04,-51.91 973.47,-49.82"/>
<polygon fill="black" stroke="black" points="973.5,-53.32 983.29,-49.28 973.12,-46.34 973.5,-53.32"/>
<text xml:space="preserve" text-anchor="middle" x="913" y="-68.7" font-family="Times New Roman,serif" font-size="14.00">single movie</text>
</g>
<!-- SortSingleMovie -->
<g id="node7" class="node">
<title>SortSingleMovie</title>
<path fill="none" stroke="black" d="M1082,-120C1082,-120 997,-120 997,-120 991,-120 985,-114 985,-108 985,-108 985,-96 985,-96 985,-90 991,-84 997,-84 997,-84 1082,-84 1082,-84 1088,-84 1094,-90 1094,-96 1094,-96 1094,-108 1094,-108 1094,-114 1088,-120 1082,-120"/>
<text xml:space="preserve" text-anchor="middle" x="1039.5" y="-96.95" font-family="Times New Roman,serif" font-size="14.00">SortSingleMovie</text>
</g>
<!-- GetRatings&#45;&gt;SortSingleMovie -->
<g id="edge9" class="edge">
<title>GetRatings&#45;&gt;SortSingleMovie</title>
<path fill="none" stroke="black" d="M841.35,-86.6C874.52,-85.78 924.06,-85.58 967,-89.5 969.16,-89.7 971.36,-89.93 973.58,-90.18"/>
<polygon fill="black" stroke="black" points="972.88,-93.62 983.25,-91.44 973.78,-86.68 972.88,-93.62"/>
<text xml:space="preserve" text-anchor="middle" x="913" y="-92.7" font-family="Times New Roman,serif" font-size="14.00">single movie</text>
</g>
<!-- SortMovies&#45;&gt;FinalResponse -->
<g id="edge6" class="edge">
<title>SortMovies&#45;&gt;FinalResponse</title>
<path fill="none" stroke="black" d="M1079.82,-141.43C1113.55,-128.94 1162.7,-110.74 1201.42,-96.39"/>
<polygon fill="black" stroke="black" points="1202.47,-99.74 1210.63,-92.98 1200.04,-93.17 1202.47,-99.74"/>
<text xml:space="preserve" text-anchor="middle" x="1138.62" y="-132.68" font-family="Times New Roman,serif" font-size="14.00">sorted list</text>
</g>
<!-- SortMovieSingle&#45;&gt;FinalResponse -->
<g id="edge10" class="edge">
<title>SortMovieSingle&#45;&gt;FinalResponse</title>
<path fill="none" stroke="black" d="M1094.37,-54.33C1117.66,-57.06 1145.56,-60.34 1171.85,-63.43"/>
<polygon fill="black" stroke="black" points="1171.16,-66.87 1181.5,-64.56 1171.97,-59.92 1171.16,-66.87"/>
</g>
<!-- SortSingleMovie&#45;&gt;FinalResponse -->
<g id="edge11" class="edge">
<title>SortSingleMovie&#45;&gt;FinalResponse</title>
<path fill="none" stroke="black" d="M1094.37,-95.19C1117.66,-92.24 1145.56,-88.71 1171.85,-85.39"/>
<polygon fill="black" stroke="black" points="1172.02,-88.89 1181.5,-84.17 1171.14,-81.95 1172.02,-88.89"/>
</g>
</g>
</svg>
