<?xml version="1.0" encoding="UTF-8" standalone="no"?>
<!DOCTYPE svg PUBLIC "-//W3C//DTD SVG 1.1//EN"
 "http://www.w3.org/Graphics/SVG/1.1/DTD/svg11.dtd">
<!-- Generated by graphviz version 13.1.2 (20250808.2320)
 -->
<!-- Title: G Pages: 1 -->
<svg width="749pt" height="260pt"
 viewBox="0.00 0.00 749.00 260.00" xmlns="http://www.w3.org/2000/svg" xmlns:xlink="http://www.w3.org/1999/xlink">
<g id="graph0" class="graph" transform="scale(1 1) rotate(0) translate(4 256)">
<title>G</title>
<polygon fill="white" stroke="none" points="-4,4 -4,-256 744.5,-256 744.5,4 -4,4"/>
<!-- Requester -->
<g id="node1" class="node">
<title>Requester</title>
<path fill="none" stroke="black" d="M151.75,-144C151.75,-144 12,-144 12,-144 6,-144 0,-138 0,-132 0,-132 0,-120 0,-120 0,-114 6,-108 12,-108 12,-108 151.75,-108 151.75,-108 157.75,-108 163.75,-114 163.75,-120 163.75,-120 163.75,-132 163.75,-132 163.75,-138 157.75,-144 151.75,-144"/>
<text xml:space="preserve" text-anchor="middle" x="81.88" y="-120.95" font-family="Times New Roman,serif" font-size="14.00">Credit Application Request</text>
</g>
<!-- MainProcess -->
<g id="node2" class="node">
<title>MainProcess</title>
<path fill="none" stroke="black" d="M479.75,-144C479.75,-144 318.25,-144 318.25,-144 312.25,-144 306.25,-138 306.25,-132 306.25,-132 306.25,-120 306.25,-120 306.25,-114 312.25,-108 318.25,-108 318.25,-108 479.75,-108 479.75,-108 485.75,-108 491.75,-114 491.75,-120 491.75,-120 491.75,-132 491.75,-132 491.75,-138 485.75,-144 479.75,-144"/>
<text xml:space="preserve" text-anchor="middle" x="399" y="-120.95" font-family="Times New Roman,serif" font-size="14.00">creditapp.module.MainProcess</text>
</g>
<!-- Requester&#45;&gt;MainProcess -->
<g id="edge1" class="edge">
<title>Requester&#45;&gt;MainProcess</title>
<path fill="none" stroke="black" d="M164.03,-126C203.78,-126 252.11,-126 294.49,-126"/>
<polygon fill="black" stroke="black" points="294.47,-129.5 304.47,-126 294.47,-122.5 294.47,-129.5"/>
<text xml:space="preserve" text-anchor="middle" x="235" y="-129.2" font-family="Times New Roman,serif" font-size="14.00">POST /creditdetails</text>
</g>
<!-- Equifax -->
<g id="node3" class="node">
<title>Equifax</title>
<path fill="none" stroke="black" d="M681.25,-252C681.25,-252 588,-252 588,-252 582,-252 576,-246 576,-240 576,-240 576,-228 576,-228 576,-222 582,-216 588,-216 588,-216 681.25,-216 681.25,-216 687.25,-216 693.25,-222 693.25,-228 693.25,-228 693.25,-240 693.25,-240 693.25,-246 687.25,-252 681.25,-252"/>
<text xml:space="preserve" text-anchor="middle" x="634.62" y="-228.95" font-family="Times New Roman,serif" font-size="14.00">Equifax (External)</text>
</g>
<!-- MainProcess&#45;&gt;Equifax -->
<g id="edge2" class="edge">
<title>MainProcess&#45;&gt;Equifax</title>
<path fill="none" stroke="black" d="M423.9,-144.24C448.85,-162.48 489.7,-190.18 528.75,-207 540.05,-211.87 552.43,-216.01 564.6,-219.49"/>
<polygon fill="black" stroke="black" points="563.65,-222.85 574.22,-222.09 565.48,-216.1 563.65,-222.85"/>
</g>
<!-- Experian -->
<g id="node4" class="node">
<title>Experian</title>
<path fill="none" stroke="black" d="M684.25,-198C684.25,-198 585,-198 585,-198 579,-198 573,-192 573,-186 573,-186 573,-174 573,-174 573,-168 579,-162 585,-162 585,-162 684.25,-162 684.25,-162 690.25,-162 696.25,-168 696.25,-174 696.25,-174 696.25,-186 696.25,-186 696.25,-192 690.25,-198 684.25,-198"/>
<text xml:space="preserve" text-anchor="middle" x="634.62" y="-174.95" font-family="Times New Roman,serif" font-size="14.00">Experian (External)</text>
</g>
<!-- MainProcess&#45;&gt;Experian -->
<g id="edge3" class="edge">
<title>MainProcess&#45;&gt;Experian</title>
<path fill="none" stroke="black" d="M479.75,-144.43C506.35,-150.58 535.81,-157.39 561.78,-163.39"/>
<polygon fill="black" stroke="black" points="560.67,-166.73 571.2,-165.57 562.24,-159.91 560.67,-166.73"/>
</g>
<!-- LookupDB -->
<g id="node5" class="node">
<title>LookupDB</title>
<path fill="none" stroke="black" d="M728.5,-144C728.5,-144 540.75,-144 540.75,-144 534.75,-144 528.75,-138 528.75,-132 528.75,-132 528.75,-120 528.75,-120 528.75,-114 534.75,-108 540.75,-108 540.75,-108 728.5,-108 728.5,-108 734.5,-108 740.5,-114 740.5,-120 740.5,-120 740.5,-132 740.5,-132 740.5,-138 734.5,-144 728.5,-144"/>
<text xml:space="preserve" text-anchor="middle" x="634.62" y="-120.95" font-family="Times New Roman,serif" font-size="14.00">creditcheckservice.LookupDatabase</text>
</g>
<!-- MainProcess&#45;&gt;LookupDB -->
<g id="edge4" class="edge">
<title>MainProcess&#45;&gt;LookupDB</title>
<path fill="none" stroke="black" d="M492,-126C500.25,-126 508.68,-126 517.1,-126"/>
<polygon fill="black" stroke="black" points="517.05,-129.5 527.05,-126 517.05,-122.5 517.05,-129.5"/>
</g>
<!-- Logger -->
<g id="node6" class="node">
<title>Logger</title>
<path fill="none" stroke="black" d="M703.75,-90C703.75,-90 565.5,-90 565.5,-90 559.5,-90 553.5,-84 553.5,-78 553.5,-78 553.5,-66 553.5,-66 553.5,-60 559.5,-54 565.5,-54 565.5,-54 703.75,-54 703.75,-54 709.75,-54 715.75,-60 715.75,-66 715.75,-66 715.75,-78 715.75,-78 715.75,-84 709.75,-90 703.75,-90"/>
<text xml:space="preserve" text-anchor="middle" x="634.62" y="-66.95" font-family="Times New Roman,serif" font-size="14.00">loggingservice.LogProcess</text>
</g>
<!-- MainProcess&#45;&gt;Logger -->
<g id="edge5" class="edge">
<title>MainProcess&#45;&gt;Logger</title>
<path fill="none" stroke="black" d="M479.75,-107.57C500.03,-102.88 521.97,-97.81 542.76,-93"/>
<polygon fill="black" stroke="black" points="543.41,-96.44 552.37,-90.78 541.83,-89.62 543.41,-96.44"/>
</g>
<!-- Response -->
<g id="node7" class="node">
<title>Response</title>
<path fill="none" stroke="black" d="M690.62,-36C690.62,-36 578.62,-36 578.62,-36 572.62,-36 566.62,-30 566.62,-24 566.62,-24 566.62,-12 566.62,-12 566.62,-6 572.62,0 578.62,0 578.62,0 690.62,0 690.62,0 696.62,0 702.62,-6 702.62,-12 702.62,-12 702.62,-24 702.62,-24 702.62,-30 696.62,-36 690.62,-36"/>
<text xml:space="preserve" text-anchor="middle" x="634.62" y="-12.95" font-family="Times New Roman,serif" font-size="14.00">Credit Decision/Score</text>
</g>
<!-- MainProcess&#45;&gt;Response -->
<g id="edge6" class="edge">
<title>MainProcess&#45;&gt;Response</title>
<path fill="none" stroke="black" d="M423.9,-107.76C448.85,-89.52 489.7,-61.82 528.75,-45 537.25,-41.34 546.36,-38.09 555.53,-35.22"/>
<polygon fill="black" stroke="black" points="556.25,-38.66 564.84,-32.46 554.26,-31.95 556.25,-38.66"/>
</g>
</g>
</svg>
