<?xml version="1.0" encoding="UTF-8" standalone="no"?>
<!DOCTYPE svg PUBLIC "-//W3C//DTD SVG 1.1//EN"
 "http://www.w3.org/Graphics/SVG/1.1/DTD/svg11.dtd">
<!-- Generated by graphviz version 13.1.2 (20250808.2320)
 -->
<!-- Title: G Pages: 1 -->
<svg width="829pt" height="206pt"
 viewBox="0.00 0.00 829.00 206.00" xmlns="http://www.w3.org/2000/svg" xmlns:xlink="http://www.w3.org/1999/xlink">
<g id="graph0" class="graph" transform="scale(1 1) rotate(0) translate(4 202)">
<title>G</title>
<polygon fill="white" stroke="none" points="-4,4 -4,-202 824.75,-202 824.75,4 -4,4"/>
<!-- User -->
<g id="node1" class="node">
<title>User</title>
<path fill="none" stroke="black" d="M127.75,-144C127.75,-144 12,-144 12,-144 6,-144 0,-138 0,-132 0,-132 0,-120 0,-120 0,-114 6,-108 12,-108 12,-108 127.75,-108 127.75,-108 133.75,-108 139.75,-114 139.75,-120 139.75,-120 139.75,-132 139.75,-132 139.75,-138 133.75,-144 127.75,-144"/>
<text xml:space="preserve" text-anchor="middle" x="69.88" y="-120.95" font-family="Times New Roman,serif" font-size="14.00">Movie Search Request</text>
</g>
<!-- MovieSearch -->
<g id="node2" class="node">
<title>MovieSearch</title>
<path fill="none" stroke="black" d="M338.75,-144C338.75,-144 187.75,-144 187.75,-144 181.75,-144 175.75,-138 175.75,-132 175.75,-132 175.75,-120 175.75,-120 175.75,-114 181.75,-108 187.75,-108 187.75,-108 338.75,-108 338.75,-108 344.75,-108 350.75,-114 350.75,-120 350.75,-120 350.75,-132 350.75,-132 350.75,-138 344.75,-144 338.75,-144"/>
<text xml:space="preserve" text-anchor="middle" x="263.25" y="-120.95" font-family="Times New Roman,serif" font-size="14.00">moviesearch.module.Process</text>
</g>
<!-- User&#45;&gt;MovieSearch -->
<g id="edge1" class="edge">
<title>User&#45;&gt;MovieSearch</title>
<path fill="none" stroke="black" d="M140.24,-126C148.02,-126 156.05,-126 164.1,-126"/>
<polygon fill="black" stroke="black" points="163.97,-129.5 173.97,-126 163.97,-122.5 163.97,-129.5"/>
</g>
<!-- Omdb -->
<g id="node3" class="node">
<title>Omdb</title>
<path fill="none" stroke="black" d="M552,-171C552,-171 435.5,-171 435.5,-171 429.5,-171 423.5,-165 423.5,-159 423.5,-159 423.5,-147 423.5,-147 423.5,-141 429.5,-135 435.5,-135 435.5,-135 552,-135 552,-135 558,-135 564,-141 564,-147 564,-147 564,-159 564,-159 564,-165 558,-171 552,-171"/>
<text xml:space="preserve" text-anchor="middle" x="493.75" y="-147.95" font-family="Times New Roman,serif" font-size="14.00">OMDB API (External)</text>
</g>
<!-- MovieSearch&#45;&gt;Omdb -->
<g id="edge2" class="edge">
<title>MovieSearch&#45;&gt;Omdb</title>
<path fill="none" stroke="black" d="M350.96,-136.25C370.91,-138.6 392.05,-141.1 411.74,-143.43"/>
<polygon fill="black" stroke="black" points="411.3,-146.9 421.65,-144.6 412.13,-139.95 411.3,-146.9"/>
</g>
<!-- CatalogProcess -->
<g id="node4" class="node">
<title>CatalogProcess</title>
<path fill="none" stroke="black" d="M588.75,-117C588.75,-117 398.75,-117 398.75,-117 392.75,-117 386.75,-111 386.75,-105 386.75,-105 386.75,-93 386.75,-93 386.75,-87 392.75,-81 398.75,-81 398.75,-81 588.75,-81 588.75,-81 594.75,-81 600.75,-87 600.75,-93 600.75,-93 600.75,-105 600.75,-105 600.75,-111 594.75,-117 588.75,-117"/>
<text xml:space="preserve" text-anchor="middle" x="493.75" y="-93.95" font-family="Times New Roman,serif" font-size="14.00">moviecatalogsearch.module.Process</text>
</g>
<!-- MovieSearch&#45;&gt;CatalogProcess -->
<g id="edge3" class="edge">
<title>MovieSearch&#45;&gt;CatalogProcess</title>
<path fill="none" stroke="black" d="M350.96,-115.75C358.95,-114.81 367.12,-113.84 375.32,-112.88"/>
<polygon fill="black" stroke="black" points="375.48,-116.38 385,-111.73 374.65,-109.43 375.48,-116.38"/>
</g>
<!-- SearchMovies -->
<g id="node5" class="node">
<title>SearchMovies</title>
<path fill="none" stroke="black" d="M763.75,-198C763.75,-198 693.75,-198 693.75,-198 687.75,-198 681.75,-192 681.75,-186 681.75,-186 681.75,-174 681.75,-174 681.75,-168 687.75,-162 693.75,-162 693.75,-162 763.75,-162 763.75,-162 769.75,-162 775.75,-168 775.75,-174 775.75,-174 775.75,-186 775.75,-186 775.75,-192 769.75,-198 763.75,-198"/>
<text xml:space="preserve" text-anchor="middle" x="728.75" y="-174.95" font-family="Times New Roman,serif" font-size="14.00">SearchMovies</text>
</g>
<!-- CatalogProcess&#45;&gt;SearchMovies -->
<g id="edge4" class="edge">
<title>CatalogProcess&#45;&gt;SearchMovies</title>
<path fill="none" stroke="black" d="M579.72,-117.42C586.96,-119.95 594.07,-122.8 600.75,-126 618.79,-134.64 618.88,-144.01 636.75,-153 647.35,-158.33 659.18,-162.8 670.72,-166.47"/>
<polygon fill="black" stroke="black" points="669.61,-169.79 680.19,-169.31 671.62,-163.08 669.61,-169.79"/>
</g>
<!-- SortMovies -->
<g id="node6" class="node">
<title>SortMovies</title>
<path fill="none" stroke="black" d="M808.75,-144C808.75,-144 648.75,-144 648.75,-144 642.75,-144 636.75,-138 636.75,-132 636.75,-132 636.75,-120 636.75,-120 636.75,-114 642.75,-108 648.75,-108 648.75,-108 808.75,-108 808.75,-108 814.75,-108 820.75,-114 820.75,-120 820.75,-120 820.75,-132 820.75,-132 820.75,-138 814.75,-144 808.75,-144"/>
<text xml:space="preserve" text-anchor="middle" x="728.75" y="-120.95" font-family="Times New Roman,serif" font-size="14.00">SortMovies / SortSingleMovie</text>
</g>
<!-- CatalogProcess&#45;&gt;SortMovies -->
<g id="edge5" class="edge">
<title>CatalogProcess&#45;&gt;SortMovies</title>
<path fill="none" stroke="black" d="M601.02,-111.31C609.1,-112.25 617.24,-113.19 625.29,-114.13"/>
<polygon fill="black" stroke="black" points="624.76,-117.59 635.1,-115.26 625.56,-110.64 624.76,-117.59"/>
</g>
<!-- Ratings -->
<g id="node7" class="node">
<title>Ratings</title>
<path fill="none" stroke="black" d="M755.12,-90C755.12,-90 702.38,-90 702.38,-90 696.38,-90 690.38,-84 690.38,-78 690.38,-78 690.38,-66 690.38,-66 690.38,-60 696.38,-54 702.38,-54 702.38,-54 755.12,-54 755.12,-54 761.12,-54 767.12,-60 767.12,-66 767.12,-66 767.12,-78 767.12,-78 767.12,-84 761.12,-90 755.12,-90"/>
<text xml:space="preserve" text-anchor="middle" x="728.75" y="-66.95" font-family="Times New Roman,serif" font-size="14.00">GetRatings</text>
</g>
<!-- CatalogProcess&#45;&gt;Ratings -->
<g id="edge6" class="edge">
<title>CatalogProcess&#45;&gt;Ratings</title>
<path fill="none" stroke="black" d="M601.02,-86.69C628.11,-83.55 655.93,-80.32 678.59,-77.7"/>
<polygon fill="black" stroke="black" points="678.9,-81.18 688.43,-76.56 678.09,-74.23 678.9,-81.18"/>
</g>
<!-- Result -->
<g id="node8" class="node">
<title>Result</title>
<path fill="none" stroke="black" d="M799.75,-36C799.75,-36 657.75,-36 657.75,-36 651.75,-36 645.75,-30 645.75,-24 645.75,-24 645.75,-12 645.75,-12 645.75,-6 651.75,0 657.75,0 657.75,0 799.75,0 799.75,0 805.75,0 811.75,-6 811.75,-12 811.75,-12 811.75,-24 811.75,-24 811.75,-30 805.75,-36 799.75,-36"/>
<text xml:space="preserve" text-anchor="middle" x="728.75" y="-12.95" font-family="Times New Roman,serif" font-size="14.00">Sorted &amp; Rated Movie List</text>
</g>
<!-- CatalogProcess&#45;&gt;Result -->
<g id="edge7" class="edge">
<title>CatalogProcess&#45;&gt;Result</title>
<path fill="none" stroke="black" d="M540.48,-80.61C568.16,-69.73 604.27,-55.98 636.75,-45 641.85,-43.28 647.13,-41.55 652.46,-39.86"/>
<polygon fill="black" stroke="black" points="653.48,-43.21 661.98,-36.88 651.39,-36.53 653.48,-43.21"/>
</g>
</g>
</svg>
