<?xml version="1.0" encoding="UTF-8" standalone="no"?>
<!DOCTYPE svg PUBLIC "-//W3C//DTD SVG 1.1//EN"
 "http://www.w3.org/Graphics/SVG/1.1/DTD/svg11.dtd">
<!-- Generated by graphviz version 13.1.2 (20250808.2320)
 -->
<!-- Title: G Pages: 1 -->
<svg width="515pt" height="44pt"
 viewBox="0.00 0.00 515.00 44.00" xmlns="http://www.w3.org/2000/svg" xmlns:xlink="http://www.w3.org/1999/xlink">
<g id="graph0" class="graph" transform="scale(1 1) rotate(0) translate(4 40)">
<title>G</title>
<polygon fill="white" stroke="none" points="-4,4 -4,-40 511.25,-40 511.25,4 -4,4"/>
<!-- AnyService -->
<g id="node1" class="node">
<title>AnyService</title>
<path fill="none" stroke="black" d="M71.5,-36C71.5,-36 12,-36 12,-36 6,-36 0,-30 0,-24 0,-24 0,-12 0,-12 0,-6 6,0 12,0 12,0 71.5,0 71.5,0 77.5,0 83.5,-6 83.5,-12 83.5,-12 83.5,-24 83.5,-24 83.5,-30 77.5,-36 71.5,-36"/>
<text xml:space="preserve" text-anchor="middle" x="41.75" y="-12.95" font-family="Times New Roman,serif" font-size="14.00">Any Service</text>
</g>
<!-- Logger -->
<g id="node2" class="node">
<title>Logger</title>
<path fill="none" stroke="black" d="M326.75,-36C326.75,-36 188.5,-36 188.5,-36 182.5,-36 176.5,-30 176.5,-24 176.5,-24 176.5,-12 176.5,-12 176.5,-6 182.5,0 188.5,0 188.5,0 326.75,0 326.75,0 332.75,0 338.75,-6 338.75,-12 338.75,-12 338.75,-24 338.75,-24 338.75,-30 332.75,-36 326.75,-36"/>
<text xml:space="preserve" text-anchor="middle" x="257.62" y="-12.95" font-family="Times New Roman,serif" font-size="14.00">loggingservice.LogProcess</text>
</g>
<!-- AnyService&#45;&gt;Logger -->
<g id="edge1" class="edge">
<title>AnyService&#45;&gt;Logger</title>
<path fill="none" stroke="black" d="M83.99,-18C107.03,-18 136.71,-18 164.94,-18"/>
<polygon fill="black" stroke="black" points="164.58,-21.5 174.58,-18 164.58,-14.5 164.58,-21.5"/>
<text xml:space="preserve" text-anchor="middle" x="130" y="-21.2" font-family="Times New Roman,serif" font-size="14.00">Log Event</text>
</g>
<!-- LogStore -->
<g id="node3" class="node">
<title>LogStore</title>
<path fill="none" stroke="black" d="M495.25,-36C495.25,-36 387.75,-36 387.75,-36 381.75,-36 375.75,-30 375.75,-24 375.75,-24 375.75,-12 375.75,-12 375.75,-6 381.75,0 387.75,0 387.75,0 495.25,0 495.25,0 501.25,0 507.25,-6 507.25,-12 507.25,-12 507.25,-24 507.25,-24 507.25,-30 501.25,-36 495.25,-36"/>
<text xml:space="preserve" text-anchor="middle" x="441.5" y="-12.95" font-family="Times New Roman,serif" font-size="14.00">Structured Log Entry</text>
</g>
<!-- Logger&#45;&gt;LogStore -->
<g id="edge2" class="edge">
<title>Logger&#45;&gt;LogStore</title>
<path fill="none" stroke="black" d="M339.19,-18C347.39,-18 355.71,-18 363.87,-18"/>
<polygon fill="black" stroke="black" points="363.76,-21.5 373.76,-18 363.76,-14.5 363.76,-21.5"/>
</g>
</g>
</svg>
