<?xml version="1.0" encoding="UTF-8" standalone="no"?>
<!DOCTYPE svg PUBLIC "-//W3C//DTD SVG 1.1//EN"
 "http://www.w3.org/Graphics/SVG/1.1/DTD/svg11.dtd">
<!-- Generated by graphviz version 13.1.2 (20250808.2320)
 -->
<!-- Title: G Pages: 1 -->
<svg width="719pt" height="152pt"
 viewBox="0.00 0.00 719.00 152.00" xmlns="http://www.w3.org/2000/svg" xmlns:xlink="http://www.w3.org/1999/xlink">
<g id="graph0" class="graph" transform="scale(1 1) rotate(0) translate(4 148)">
<title>G</title>
<polygon fill="white" stroke="none" points="-4,4 -4,-148 714.5,-148 714.5,4 -4,4"/>
<!-- Client -->
<g id="node1" class="node">
<title>Client</title>
<path fill="none" stroke="black" d="M119.5,-90C119.5,-90 12,-90 12,-90 6,-90 0,-84 0,-78 0,-78 0,-66 0,-66 0,-60 6,-54 12,-54 12,-54 119.5,-54 119.5,-54 125.5,-54 131.5,-60 131.5,-66 131.5,-66 131.5,-78 131.5,-78 131.5,-84 125.5,-90 119.5,-90"/>
<text xml:space="preserve" text-anchor="middle" x="65.75" y="-66.95" font-family="Times New Roman,serif" font-size="14.00">Credit Score Request</text>
</g>
<!-- Process -->
<g id="node2" class="node">
<title>Process</title>
<path fill="none" stroke="black" d="M317,-90C317,-90 179.5,-90 179.5,-90 173.5,-90 167.5,-84 167.5,-78 167.5,-78 167.5,-66 167.5,-66 167.5,-60 173.5,-54 179.5,-54 179.5,-54 317,-54 317,-54 323,-54 329,-60 329,-66 329,-66 329,-78 329,-78 329,-84 323,-90 317,-90"/>
<text xml:space="preserve" text-anchor="middle" x="248.25" y="-66.95" font-family="Times New Roman,serif" font-size="14.00">creditcheckservice.Process</text>
</g>
<!-- Client&#45;&gt;Process -->
<g id="edge1" class="edge">
<title>Client&#45;&gt;Process</title>
<path fill="none" stroke="black" d="M131.91,-72C139.67,-72 147.69,-72 155.73,-72"/>
<polygon fill="black" stroke="black" points="155.56,-75.5 165.56,-72 155.56,-68.5 155.56,-75.5"/>
</g>
<!-- LookupDB -->
<g id="node3" class="node">
<title>LookupDB</title>
<path fill="none" stroke="black" d="M502.12,-144C502.12,-144 418.62,-144 418.62,-144 412.62,-144 406.62,-138 406.62,-132 406.62,-132 406.62,-120 406.62,-120 406.62,-114 412.62,-108 418.62,-108 418.62,-108 502.12,-108 502.12,-108 508.12,-108 514.12,-114 514.12,-120 514.12,-120 514.12,-132 514.12,-132 514.12,-138 508.12,-144 502.12,-144"/>
<text xml:space="preserve" text-anchor="middle" x="460.38" y="-120.95" font-family="Times New Roman,serif" font-size="14.00">LookupDatabase</text>
</g>
<!-- Process&#45;&gt;LookupDB -->
<g id="edge2" class="edge">
<title>Process&#45;&gt;LookupDB</title>
<path fill="none" stroke="black" d="M320.98,-90.43C345.09,-96.63 371.83,-103.5 395.32,-109.54"/>
<polygon fill="black" stroke="black" points="394.19,-112.86 404.75,-111.96 395.93,-106.08 394.19,-112.86"/>
</g>
<!-- ExperianSvc -->
<g id="node4" class="node">
<title>ExperianSvc</title>
<path fill="none" stroke="black" d="M543.75,-90C543.75,-90 377,-90 377,-90 371,-90 365,-84 365,-78 365,-78 365,-66 365,-66 365,-60 371,-54 377,-54 377,-54 543.75,-54 543.75,-54 549.75,-54 555.75,-60 555.75,-66 555.75,-66 555.75,-78 555.75,-78 555.75,-84 549.75,-90 543.75,-90"/>
<text xml:space="preserve" text-anchor="middle" x="460.38" y="-66.95" font-family="Times New Roman,serif" font-size="14.00">experianservice.module.Process</text>
</g>
<!-- Process&#45;&gt;ExperianSvc -->
<g id="edge4" class="edge">
<title>Process&#45;&gt;ExperianSvc</title>
<path fill="none" stroke="black" d="M329.29,-72C337.17,-72 345.25,-72 353.34,-72"/>
<polygon fill="black" stroke="black" points="353.25,-75.5 363.25,-72 353.25,-68.5 353.25,-75.5"/>
</g>
<!-- Response -->
<g id="node6" class="node">
<title>Response</title>
<path fill="none" stroke="black" d="M518.25,-36C518.25,-36 402.5,-36 402.5,-36 396.5,-36 390.5,-30 390.5,-24 390.5,-24 390.5,-12 390.5,-12 390.5,-6 396.5,0 402.5,0 402.5,0 518.25,0 518.25,0 524.25,0 530.25,-6 530.25,-12 530.25,-12 530.25,-24 530.25,-24 530.25,-30 524.25,-36 518.25,-36"/>
<text xml:space="preserve" text-anchor="middle" x="460.38" y="-12.95" font-family="Times New Roman,serif" font-size="14.00">Credit Score Response</text>
</g>
<!-- Process&#45;&gt;Response -->
<g id="edge5" class="edge">
<title>Process&#45;&gt;Response</title>
<path fill="none" stroke="black" d="M320.98,-53.57C339.66,-48.77 359.91,-43.56 379.01,-38.65"/>
<polygon fill="black" stroke="black" points="379.82,-42.06 388.64,-36.18 378.08,-35.28 379.82,-42.06"/>
</g>
<!-- JDBC -->
<g id="node5" class="node">
<title>JDBC</title>
<path fill="none" stroke="black" d="M698.5,-144C698.5,-144 603.75,-144 603.75,-144 597.75,-144 591.75,-138 591.75,-132 591.75,-132 591.75,-120 591.75,-120 591.75,-114 597.75,-108 603.75,-108 603.75,-108 698.5,-108 698.5,-108 704.5,-108 710.5,-114 710.5,-120 710.5,-120 710.5,-132 710.5,-132 710.5,-138 704.5,-144 698.5,-144"/>
<text xml:space="preserve" text-anchor="middle" x="651.12" y="-120.95" font-family="Times New Roman,serif" font-size="14.00">custom.jdbc.driver</text>
</g>
<!-- LookupDB&#45;&gt;JDBC -->
<g id="edge3" class="edge">
<title>LookupDB&#45;&gt;JDBC</title>
<path fill="none" stroke="black" d="M514.45,-126C534.79,-126 558.31,-126 580,-126"/>
<polygon fill="black" stroke="black" points="579.97,-129.5 589.97,-126 579.97,-122.5 579.97,-129.5"/>
</g>
</g>
</svg>
